<?xml version="1.0" encoding="UTF-8" ?>
<!DOCTYPE svg PUBLIC "-//W3C//DTD SVG 1.1//EN" "http://www.w3.org/Graphics/SVG/1.1/DTD/svg11.dtd">
<svg width="512pt" height="512pt" viewBox="0 0 512 512" version="1.1" xmlns="http://www.w3.org/2000/svg">
<g id="#000000ff">
<path fill="#000000" opacity="1.00" d=" M 108.27 19.26 C 126.78 6.26 150.94 1.77 172.87 7.29 C 188.98 11.45 205.07 15.68 221.16 19.93 C 171.45 26.62 123.99 49.04 87.48 83.45 C 79.73 90.71 72.50 98.50 65.73 106.68 C 69.67 91.91 73.65 77.16 77.64 62.41 C 82.38 45.02 93.45 29.49 108.27 19.26 Z" />
<path fill="#000000" opacity="1.00" d=" M 247.37 38.56 C 285.78 37.04 324.56 45.54 358.67 63.27 C 391.12 80.04 419.31 104.97 439.82 135.20 C 467.76 175.98 480.84 226.58 476.28 275.80 C 473.02 313.37 459.53 349.95 437.78 380.74 C 415.62 412.29 384.99 437.80 350.00 453.98 C 314.30 470.62 274.13 477.31 234.94 473.62 C 181.92 468.90 131.01 444.22 94.50 405.50 C 70.78 380.55 53.03 349.92 43.43 316.85 C 30.90 273.92 32.13 227.07 47.05 184.90 C 61.98 142.24 90.76 104.71 127.74 78.80 C 162.61 54.17 204.72 40.07 247.37 38.56 M 181.51 97.75 C 166.85 100.36 153.21 108.31 143.77 119.84 C 133.66 132.03 128.56 148.23 129.89 164.01 C 131.01 178.35 137.44 192.15 147.53 202.38 C 166.31 222.00 198.14 227.01 222.07 214.19 C 234.51 207.81 244.75 197.17 250.48 184.40 C 256.56 171.03 257.67 155.45 253.38 141.38 C 249.09 126.98 239.35 114.32 226.59 106.40 C 213.32 98.08 196.91 94.94 181.51 97.75 M 340.55 127.77 C 325.14 130.38 310.82 138.90 301.25 151.25 C 292.48 162.46 287.80 176.78 288.25 191.00 C 288.65 206.55 295.33 221.76 306.32 232.74 C 316.06 242.61 329.17 249.02 342.91 250.83 C 357.13 252.79 371.98 249.70 384.26 242.26 C 396.47 234.94 406.10 223.35 410.87 209.91 C 415.33 197.54 415.72 183.72 411.81 171.15 C 407.56 157.23 398.24 144.96 386.02 137.08 C 372.74 128.43 356.16 125.06 340.55 127.77 M 248.24 231.16 C 239.32 233.24 231.59 239.94 228.48 248.59 C 223.83 260.39 228.94 274.79 239.72 281.32 C 250.81 288.60 266.80 286.48 275.60 276.56 C 283.52 268.17 285.15 254.61 279.30 244.64 C 273.46 233.89 260.08 228.15 248.24 231.16 M 152.10 262.17 C 137.83 264.06 124.27 270.99 114.40 281.49 C 105.49 290.87 99.67 303.12 98.03 315.96 C 96.10 330.11 99.44 344.85 107.12 356.87 C 114.59 368.71 126.15 377.88 139.36 382.49 C 153.09 387.35 168.50 387.38 182.20 382.39 C 196.12 377.42 208.21 367.43 215.56 354.59 C 223.43 340.99 225.83 324.31 221.97 309.07 C 218.39 294.54 209.31 281.50 197.02 272.99 C 184.10 263.94 167.73 260.04 152.10 262.17 M 307.54 292.77 C 292.24 295.57 278.08 304.20 268.68 316.61 C 259.70 328.31 255.18 343.32 256.16 358.03 C 257.05 372.17 263.09 385.87 272.77 396.19 C 282.06 406.19 294.69 412.97 308.14 415.28 C 323.37 418.04 339.57 414.91 352.71 406.72 C 365.51 398.85 375.35 386.25 379.65 371.83 C 383.25 360.01 383.21 347.12 379.42 335.36 C 374.97 321.29 365.29 308.98 352.74 301.24 C 339.41 292.96 322.97 289.88 307.54 292.77 Z" />
<path fill="#000000" opacity="1.00" d=" M 401.84 67.25 C 418.78 71.66 435.70 76.09 452.62 80.55 C 470.32 85.19 486.28 96.18 496.79 111.17 C 509.62 129.10 514.20 152.66 508.79 174.06 C 504.10 191.78 499.29 209.47 494.51 227.18 C 488.78 180.72 468.74 136.23 437.93 101.02 C 427.10 88.56 414.95 77.27 401.84 67.25 Z" />
<path fill="#000000" opacity="1.00" d=" M 3.19 338.99 C 7.12 324.12 11.15 309.28 15.17 294.44 C 20.75 328.72 34.02 361.71 53.75 390.31 C 67.84 410.83 85.19 429.06 104.82 444.35 C 89.43 440.35 74.05 436.33 58.68 432.26 C 41.29 427.54 25.64 416.66 15.26 401.91 C 2.40 383.99 -2.20 360.41 3.19 338.99 Z" />
<path fill="#000000" opacity="1.00" d=" M 390.71 453.75 C 412.62 439.01 432.04 420.63 448.07 399.65 C 443.05 418.06 438.36 436.57 433.03 454.90 C 427.40 471.71 415.72 486.35 400.70 495.74 C 385.46 505.39 366.90 509.62 348.99 507.49 C 341.83 506.72 334.93 504.59 327.98 502.82 C 315.20 499.46 302.40 496.15 289.63 492.75 C 325.68 487.53 360.53 474.15 390.71 453.75 Z" />
</g>
</svg>
