<svg id="Capa_1" enable-background="new 0 0 512 512" height="512" viewBox="0 0 512 512" width="512" xmlns="http://www.w3.org/2000/svg"><g><path d="m509.262 255.159-82.085-225.526c-4.111-11.295-12.375-20.313-23.268-25.393-10.893-5.079-23.114-5.614-34.408-1.503l-32.889 11.97c-7.785 2.833-11.799 11.441-8.965 19.226l102.605 281.909c2.833 7.785 11.441 11.798 19.226 8.965l32.89-11.97c11.295-4.111 20.312-12.375 25.393-23.269 5.079-10.894 5.613-23.114 1.501-34.409z"/><path d="m70 222h250c11.046 0 20-8.954 20-20s-8.954-20-20-20h-250c-11.046 0-20 8.954-20 20s8.954 20 20 20z"/><path d="m118.246 152h161.754c16.569 0 30-13.431 30-30s-13.431-30-30-30h-68.943c-17.511 0-33.863-8.751-43.577-23.321-3.752-5.628-10.807-8.049-17.224-5.909l-44.105 14.702c-15.617 5.205-26.151 19.82-26.151 36.282 0 21.123 17.123 38.246 38.246 38.246z"/><path d="m110 382h170v30h-170z"/><path d="m352.5 282.637v-15.637c0-8.284-6.716-15-15-15h-285c-8.284 0-15 6.716-15 15v15.637c-21.254 3.582-37.5 22.106-37.5 44.363v110c0 41.355 33.645 75 75 75h240c41.355 0 75-33.645 75-75v-110c0-22.257-16.246-40.781-37.5-44.363zm-42.5 144.363c0 8.284-6.716 15-15 15h-200c-8.284 0-15-6.716-15-15v-60c0-8.284 6.716-15 15-15h200c8.284 0 15 6.716 15 15z"/></g></svg>