<svg id="Capa_1" enable-background="new 0 0 512 512" height="512" viewBox="0 0 512 512" width="512" xmlns="http://www.w3.org/2000/svg"><g><path d="m478.866 290.437v-43.504h1.067c8.547 0 15.5-6.953 15.5-15.5v-50.267c0-8.547-6.953-15.5-15.5-15.5h-1.067v-17.351c0-81.781-66.534-148.315-148.316-148.315h-149.1c-81.782 0-148.317 66.534-148.317 148.316v17.351h-1.066c-8.547 0-15.5 6.953-15.5 15.5v50.267c0 8.547 6.953 15.5 15.5 15.5h1.066v43.504c-18.763 3.054-33.133 19.366-33.133 38.979v68.532c0 21.78 17.72 39.5 39.5 39.5h26.767v1.351c0 12.958 10.542 23.5 23.5 23.5h34.267c12.958 0 23.5-10.542 23.5-23.5v-97.86c0-4.142-3.358-7.5-7.5-7.5s-7.5 3.358-7.5 7.5v97.86c0 4.686-3.813 8.5-8.5 8.5h-34.267c-4.687 0-8.5-3.814-8.5-8.5v-8.851-41.416-49.7-41.416-8.851c0-4.686 3.813-8.5 8.5-8.5h34.267c4.687 0 8.5 3.814 8.5 8.5v21.783c0 4.143 3.358 7.5 7.5 7.5s7.5-3.357 7.5-7.5v-21.783c0-12.958-10.542-23.5-23.5-23.5h-34.267c-2.997 0-5.862.57-8.5 1.597v-19.73h1.067c8.547 0 15.5-6.953 15.5-15.5v-50.267c0-8.547-6.953-15.5-15.5-15.5h-1.067v-17.351c0-55.241 44.942-100.183 100.184-100.183h7.552c4.142 0 7.5-3.357 7.5-7.5s-3.358-7.5-7.5-7.5h-7.552c-63.513 0-115.184 51.671-115.184 115.183v17.351h-18.134v-17.351c0-73.509 59.806-133.315 133.317-133.315h149.1c73.511 0 133.316 59.806 133.316 133.316v17.351h-18.133v-17.351c0-63.512-51.671-115.183-115.184-115.183h-111.547c-4.142 0-7.5 3.357-7.5 7.5s3.358 7.5 7.5 7.5h111.548c55.241 0 100.184 44.941 100.184 100.183v17.351h-1.066c-8.547 0-15.5 6.953-15.5 15.5v50.267c0 8.547 6.953 15.5 15.5 15.5h1.066v19.73c-2.638-1.027-5.503-1.597-8.5-1.597h-34.267c-12.958 0-23.5 10.542-23.5 23.5v150.233c0 12.958 10.542 23.5 23.5 23.5h34.267c12.958 0 23.5-10.542 23.5-23.5v-1.351h9.85v17.351c0 14.135-11.499 25.634-25.633 25.634h-100.184v-1.067c0-8.547-6.953-15.5-15.5-15.5h-83.4c-8.547 0-15.5 6.953-15.5 15.5v17.133c0 8.547 6.953 15.5 15.5 15.5h83.4c8.547 0 15.5-6.953 15.5-15.5v-1.066h100.183c22.405 0 40.633-18.228 40.633-40.634v-17.351h1.917c21.78 0 39.5-17.72 39.5-39.5v-68.532c0-19.613-14.371-35.926-33.134-38.98zm-439.366 132.012c-13.509 0-24.5-10.99-24.5-24.5v-68.532c0-13.51 10.991-24.5 24.5-24.5h1.133 25.633v26.416h-17.633c-8.547 0-15.5 6.953-15.5 15.5v33.7c0 8.547 6.953 15.5 15.5 15.5h17.633v26.416zm26.767-41.416h-17.634c-.276 0-.5-.225-.5-.5v-33.7c0-.275.224-.5.5-.5h17.633v34.7zm0-92.467v1.351h-18.134v-42.983h18.133v41.632zm16.566-107.399v50.267c0 .275-.224.5-.5.5h-8.567-33.133-8.566c-.276 0-.5-.225-.5-.5v-50.267c0-.275.224-.5.5-.5h50.267c.275 0 .499.225.499.5zm147.534 315.333v-17.134c0-.275.224-.5.5-.5h50.767v18.134h-50.767c-.276 0-.5-.225-.5-.5zm84.4 0c0 .275-.225.5-.5.5h-17.633v-18.134h17.633c.275 0 .5.225.5.5zm114.4-265.066v-50.267c0-.275.225-.5.5-.5h50.267c.275 0 .5.225.5.5v50.267c0 .275-.225.5-.5.5h-8.567-33.133-8.566c-.276 0-.501-.225-.501-.5zm34.699 15.5v42.983h-18.133v-1.351-41.633h18.133zm-18.133 99.399h17.633c.275 0 .5.225.5.5v33.7c0 .275-.225.5-.5.5h-17.633zm-15 92.467c0 4.686-3.814 8.5-8.5 8.5h-34.267c-4.686 0-8.5-3.814-8.5-8.5v-150.234c0-4.686 3.814-8.5 8.5-8.5h34.267c4.686 0 8.5 3.814 8.5 8.5v8.851 41.416 49.7 41.416zm66.267-40.851c0 13.51-10.99 24.5-24.5 24.5h-26.767v-26.416h17.633c8.547 0 15.5-6.953 15.5-15.5v-33.7c0-8.547-6.953-15.5-15.5-15.5h-17.633v-26.416h25.633 1.134c13.51 0 24.5 10.99 24.5 24.5z"/></g></svg>