<svg height="512" viewBox="0 0 512 512" width="512" xmlns="http://www.w3.org/2000/svg"><g id="Solid"><path d="m384 224h80v48h-80z"/><path d="m456 72.981a79.963 79.963 0 0 1 -6.426 5.727c-12.466 9.974-27.418 16.232-41.023 17.173l-1.1-15.963c10.28-.71 22.292-5.833 32.13-13.7 8.547-6.838 14.395-14.875 15.988-21.849a16.016 16.016 0 0 0 -15.569-12.369 48.055 48.055 0 0 0 -48 48v128h64z"/><path d="m472 288h-104v192h112v-192zm-72 168h-16v-112h16zm0-128h-16v-16h16z"/><path d="m48 404a12.013 12.013 0 0 0 12 12h232a12 12 0 0 0 0-24h-232a12.013 12.013 0 0 0 -12 12z"/><path d="m217.754 448 4-16h-91.508l4 16z"/><path d="m267.878 336.066a112.007 112.007 0 1 0 -133.478 39.934h83.2a111.813 111.813 0 0 0 50.278-39.934zm-153.535-61.723 48-48 11.314 11.314-48 48zm16 32 80-80 11.314 11.314-80 80zm59.314 11.314-11.314-11.314 48-48 11.314 11.314z"/><path d="m238.246 432-6.485 25.94a8 8 0 0 1 -7.761 6.06h-96a8 8 0 0 1 -7.761-6.06l-6.485-25.94h-81.754v32a16.019 16.019 0 0 0 16 16h256a16.019 16.019 0 0 0 16-16v-32z"/><path d="m176 128c-79.4 0-144 64.6-144 144a144.392 144.392 0 0 0 44.415 104h24.928a127.979 127.979 0 1 1 149.314 0h24.928a144.392 144.392 0 0 0 44.415-104c0-79.4-64.6-144-144-144z"/></g></svg>