<?xml version="1.0" encoding="UTF-8" ?>
<!DOCTYPE svg PUBLIC "-//W3C//DTD SVG 1.1//EN" "http://www.w3.org/Graphics/SVG/1.1/DTD/svg11.dtd">
<svg width="938pt" height="815pt" viewBox="0 0 938 815" version="1.1" xmlns="http://www.w3.org/2000/svg">
<g id="#000000ff">
<path fill="#000000" opacity="1.00" d=" M 489.51 23.61 C 499.80 14.17 513.11 7.95 527.03 6.55 C 535.03 6.59 543.20 5.79 551.00 8.06 C 562.51 10.92 573.18 16.98 581.61 25.32 C 632.69 76.29 683.65 127.37 734.62 178.46 C 794.78 238.61 854.93 298.78 915.10 358.93 C 925.14 368.82 931.83 382.03 933.92 395.97 C 937.24 416.61 930.13 438.59 915.25 453.30 C 803.93 564.63 692.60 675.96 581.27 787.28 C 568.73 799.36 551.26 805.70 533.98 805.77 C 523.96 804.98 513.92 802.74 504.97 798.05 C 492.64 791.68 482.02 781.46 476.35 768.67 C 466.20 747.16 468.35 720.45 481.87 700.87 C 486.40 693.88 492.76 688.43 498.53 682.51 C 555.70 625.34 612.80 568.09 670.01 510.95 C 678.69 501.92 688.01 493.40 698.67 486.74 C 707.63 480.83 717.59 476.75 727.24 472.14 C 508.48 472.11 289.73 472.13 70.97 472.13 C 57.79 472.30 44.53 468.71 33.45 461.53 C 16.59 450.75 4.96 432.06 3.18 412.09 C 2.95 406.70 2.82 401.27 3.48 395.91 C 6.19 379.11 15.59 363.56 29.03 353.14 C 40.11 344.44 53.91 339.30 67.98 338.63 C 288.12 338.62 508.27 338.63 728.41 338.62 C 718.07 333.73 707.22 329.79 697.68 323.38 C 685.95 316.07 676.02 306.38 666.49 296.49 C 607.26 237.06 548.05 177.62 488.87 118.15 C 476.14 104.91 469.26 86.34 470.04 68.02 C 470.79 51.58 476.99 34.70 489.51 23.61 Z" />
</g>
</svg>
