<svg id="Capa_1" enable-background="new 0 0 512 512" height="512" viewBox="0 0 512 512" width="512" xmlns="http://www.w3.org/2000/svg"><g><path d="m112.11 51.667h30v30h-30z"/><path d="m57.025 20.908h30v30h-30z"/><path d="m57.025 82.426h30v30h-30z"/><path d="m305.079 334.529h106.536c-2.674-29.004-12.62-57.2-29.458-81.986l-24.784-36.484h-123.761v70.32h51.229z"/><path d="m158.384 349.529 13.933 33.151h92.59l13.934-33.151-13.934-33.151h-92.59z"/><path d="m152.384 286.378h51.229v-70.32h-123.762l-24.785 36.484c-16.837 24.786-26.783 52.982-29.457 81.986h106.536z"/><path d="m284.841 412.68h-132.457l-20.238-48.15h-106.702c.944 11.649 3.051 23.285 6.377 34.745 14.54 50.099 50.328 90.735 98.188 111.488l2.855 1.238h171.494l2.855-1.238c47.86-20.753 83.648-61.389 98.188-111.488 3.326-11.459 5.433-23.096 6.377-34.745h-106.699z"/><path d="m401.261 0c-41.026 0-75.373 24.924-83.478 58.011h-51.006v-31.497h-96.33v93.446h-36.439v66.099h169.209v-66.099h-36.439v-31.949h51.006c8.104 33.086 42.451 58.011 83.478 58.011 47.032 0 85.295-32.752 85.295-73.011s-38.264-73.011-85.296-73.011z"/></g></svg>