<svg height="511pt" viewBox="0 -9 511.997 511" width="511pt" xmlns="http://www.w3.org/2000/svg"><path d="m247.210938 59.414062c25.230468 0 48.816406 4.9375 68.90625 14.359376-1.476563-36.574219-31.753907-65.777344-68.90625-65.777344-37.152344 0-67.429688 29.203125-68.90625 65.777344 20.089843-9.421876 43.675781-14.359376 68.90625-14.359376zm0 0" fill="#b57a4e"/><path d="m211.375 62.953125c5.316406-26.210937 25.660156-47 51.71875-53.109375-5.101562-1.195312-10.414062-1.847656-15.882812-1.847656-37.152344 0-67.429688 29.203125-68.910157 65.777344 10.207031-4.785157 21.3125-8.410157 33.074219-10.820313zm0 0" fill="#9b5729"/><path d="m408.3125 451.617188c-11.65625-.628907-22.527344-5.433594-30.839844-13.695313l-56.992187-56.65625h-20.664063l-52.605468 80.546875-52.609376-80.546875h-34.722656c-40.722656 0-73.851562 32.933594-73.851562 73.414063v26.640624c0 2.886719 2.34375 5.226563 5.234375 5.226563h311.898437c2.890625 0 5.230469-2.339844 5.230469-5.226563v-26.640624c0-1.027344-.035156-2.046876-.078125-3.0625zm0 0" fill="#f66"/><path d="m167.378906 385.300781-2.636718-4.035156h-4.867188c-40.71875 0-73.847656 32.933594-73.847656 73.410156v26.644531c0 2.886719 2.34375 5.226563 5.234375 5.226563h31.605469c-2.890626 0-5.230469-2.339844-5.230469-5.226563v-26.644531c0-32.089843 20.828125-59.417969 49.742187-69.375zm0 0" fill="#fe3745"/><path d="m320.476562 381.265625h-20.660156l-52.605468 80.546875-52.609376-80.546875h-29.859374l61.535156 94.21875c3.960937 6.058594 10.316406 10.046875 17.367187 11.0625h7.125c7.054688-1.015625 13.410157-5.003906 17.371094-11.0625l57.914063-88.675781zm0 0" fill="#def9ff"/><path d="m277.078125 374.210938v-20.488282c-5.5.949219-11.148437 1.449219-16.917969 1.449219h-25.894531c-5.769531 0-11.421875-.5-16.921875-1.449219v20.488282c0 3.890624-3.1875 7.054687-7.101562 7.054687h-15.640626l52.605469 80.546875 52.609375-80.546875h-15.636718c-3.914063 0-7.101563-3.167969-7.101563-7.054687zm0 0" fill="#f8d5ab"/><path d="m215.089844 379.351562c-1.269532 1.183594-2.972656 1.914063-4.847656 1.914063h-15.640626l52.609376 80.546875 10.867187-16.644531zm0 0" fill="#eac092"/><path d="m247.210938 59.414062c-73.367188 0-132.84375 41.785157-132.84375 113.910157v34.375c1.730468-.464844 3.542968-.730469 5.421874-.730469h16.765626v-22.535156c0-3.105469 2.542968-5.632813 5.671874-5.632813h87.707032c16.183594 0 31.597656-8.527343 40.234375-22.257812 1.039062-1.65625 2.839843-2.644531 4.8125-2.644531 1.96875 0 3.761719.988281 4.804687 2.644531 8.636719 13.730469 24.054688 22.253906 40.234375 22.253906h32.175781c3.128907 0 5.671876 2.527344 5.671876 5.636719v22.53125h16.769531c1.875 0 3.6875.269531 5.417969.734375v-34.375c-.003907-72.125-59.476563-113.910157-132.84375-113.910157zm0 0" fill="#b57a4e"/><path d="m247.210938 59.414062c-73.367188 0-132.84375 41.785157-132.84375 113.910157v34.375c1.730468-.464844 3.542968-.730469 5.421874-.730469h16.765626v-22.535156c0-3.105469 2.542968-5.632813 5.671874-5.632813h3.773438v-5.476562c0-66.863281 51.113281-107.644531 117.027344-113.242188-5.1875-.441406-10.464844-.667969-15.816406-.667969zm0 0" fill="#9b5729"/><g fill="#ffe2b8"><path d="m389.707031 265.546875c3.425781-3.617187 5.535157-8.457031 5.535157-13.789063v-24.527343c0-11.191407-9.226563-20.265625-20.609376-20.265625h-16.265624v39.609375c12.988281 1.628906 24.25 8.757812 31.339843 18.972656zm0 0"/><path d="m108.101562 268.441406c.375-2.136718 1.964844-3.890625 4.121094-4.433594 8.097656-2.03125 16.171875-2.691406 23.925782-2.0625-.058594-1.339843-.09375-2.6875-.09375-4.039062v-50.941406h-16.265626c-11.382812 0-20.609374 9.074218-20.609374 20.265625v24.527343c0 6.921876 3.535156 13.027344 8.921874 16.683594zm0 0"/><path d="m313.011719 331.96875c-1.996094-1.980469-3.097657-4.621094-3.097657-7.429688 0-2.804687 1.101563-5.441406 3.097657-7.425781.652343-.652343 1.386719-1.195312 2.167969-1.648437-4.6875-7.054688-7.421876-15.5-7.421876-24.585938 0-24.671875 20.121094-44.671875 44.9375-44.671875 1.921876 0 3.8125.136719 5.671876.367188v-62.140625c0-3.390625-2.765626-6.136719-6.171876-6.136719h-32.175781c-16.007812 0-31.265625-8.4375-39.8125-22.019531-1.128906-1.796875-3.105469-2.882813-5.230469-2.882813-2.128906 0-4.105468 1.085938-5.234374 2.882813-8.542969 13.582031-23.804688 22.019531-39.808594 22.019531h-87.707032c-3.410156 0-6.171874 2.746094-6.171874 6.136719l.089843 77.511718c14.910157 1.214844 28.617188 7.222657 38.941407 17.484376 15.691406 15.597656 21.488281 38.960937 15.511718 62.492187-.238281.929687-.707031 1.75-1.335937 2.417969 13.488281 6.917968 28.792969 10.832031 45 10.832031h25.898437c21.484375 0 41.378906-6.875 57.5625-18.515625zm0 0"/></g><path d="m163.171875 178.296875h-20.945313c-3.410156 0-6.171874 2.746094-6.171874 6.136719l.089843 77.515625c7.507813.609375 14.703125 2.441406 21.320313 5.414062-.304688-3.113281-.464844-6.265625-.464844-9.457031v-73.472656c0-3.390625 2.761719-6.136719 6.171875-6.136719zm0 0" fill="#ffc987"/><path d="m445.96875 191.355469c-1.195312 0-2.269531-.730469-2.710938-1.84375-5.871093-14.769531-10.328124-19.226563-25.101562-25.101563-1.109375-.441406-1.839844-1.515625-1.839844-2.710937 0-1.195313.726563-2.269531 1.839844-2.710938 14.773438-5.871093 19.230469-10.328125 25.101562-25.105469.441407-1.109374 1.515626-1.835937 2.710938-1.835937s2.269531.726563 2.710938 1.835937c5.871093 14.777344 10.332031 19.234376 25.101562 25.105469 1.113281.441407 1.84375 1.515625 1.84375 2.710938 0 1.195312-.730469 2.269531-1.84375 2.710937-14.769531 5.871094-19.230469 10.328125-25.101562 25.101563-.441407 1.113281-1.515626 1.84375-2.710938 1.84375zm0 0" fill="#ffaf10"/><path d="m428.535156 154.328125c-.089844-.035156-.171875-.082031-.257812-.125-2.753906 1.652344-6.042969 3.164063-10.121094 4.785156-1.109375.441407-1.839844 1.519531-1.839844 2.714844s.726563 2.269531 1.839844 2.710937c14.773438 5.871094 19.230469 10.328126 25.101562 25.101563.441407 1.113281 1.515626 1.839844 2.710938 1.839844s2.269531-.726563 2.710938-1.839844c1.652343-4.15625 3.191406-7.492187 4.878906-10.277344-5.832032-14.617187-10.316406-19.066406-25.023438-24.910156zm0 0" fill="#f39600"/><path d="m62.023438 191.660156c-1.195313 0-2.269532-.730468-2.710938-1.839844-5.871094-14.777343-10.328125-19.234374-25.101562-25.105468-1.113282-.441406-1.839844-1.515625-1.839844-2.710938 0-1.195312.726562-2.269531 1.839844-2.710937 14.773437-5.871094 19.230468-10.328125 25.101562-25.101563.441406-1.109375 1.515625-1.84375 2.710938-1.84375 1.195312 0 2.269531.730469 2.710937 1.84375 5.871094 14.773438 10.328125 19.230469 25.101563 25.101563 1.109374.441406 1.839843 1.515625 1.839843 2.710937 0 1.195313-.726562 2.269532-1.839843 2.710938-14.773438 5.871094-19.230469 10.328125-25.101563 25.105468-.441406 1.109376-1.515625 1.839844-2.710937 1.839844zm0 0" fill="#ffcb00"/><path d="m44.535156 154.636719c-.082031-.03125-.15625-.074219-.230468-.113281-2.75 1.644531-6.03125 3.152343-10.09375 4.769531-1.109376.441406-1.839844 1.515625-1.839844 2.710937 0 1.195313.730468 2.269532 1.839844 2.710938 14.773437 5.871094 19.230468 10.328125 25.101562 25.105468.441406 1.109376 1.515625 1.839844 2.710938 1.839844 1.195312 0 2.269531-.730468 2.710937-1.839844 1.640625-4.128906 3.171875-7.449218 4.84375-10.222656-5.839844-14.660156-10.316406-19.109375-25.042969-24.960937zm0 0" fill="#ffaf10"/><path d="m104.914062 72.226562c-.972656 0-1.84375-.59375-2.199218-1.492187-4.761719-11.980469-8.375-15.597656-20.355469-20.355469-.898437-.359375-1.492187-1.226562-1.492187-2.195312 0-.972656.59375-1.84375 1.492187-2.203125 11.980469-4.761719 15.59375-8.375 20.355469-20.355469.359375-.898438 1.226562-1.492188 2.199218-1.492188.96875 0 1.839844.59375 2.195313 1.492188 4.761719 11.980469 8.375 15.59375 20.355469 20.355469.898437.359375 1.492187 1.230469 1.492187 2.203125 0 .96875-.59375 1.835937-1.492187 2.195312-11.980469 4.761719-15.59375 8.375-20.355469 20.355469-.355469.898437-1.226563 1.492187-2.195313 1.492187zm0 0" fill="#ffaf10"/><path d="m112.757812 59.875c-4.601562-11.574219-8.152343-15.34375-19.183593-19.878906-2.765625 2.242187-6.269531 4.019531-11.214844 5.984375-.898437.359375-1.492187 1.230469-1.492187 2.199219 0 .972656.59375 1.839843 1.492187 2.195312 11.980469 4.761719 15.59375 8.378906 20.355469 20.359375.359375.898437 1.226562 1.492187 2.199218 1.492187.96875 0 1.839844-.59375 2.195313-1.492187 1.875-4.710937 3.574219-8.121094 5.671875-10.824219-.007812-.011718-.015625-.023437-.023438-.035156zm0 0" fill="#f39600"/><path d="m90.628906 341.613281-80.375 88.398438c-3.671875 3.648437-3.675781 9.570312 0 13.21875 3.671875 3.652343 9.625 3.652343 13.296875 0l88.925781-79.898438zm0 0" fill="#c7c8ca"/><path d="m99.050781 349.984375-8.421875-8.371094-80.375 88.398438c-3.671875 3.648437-3.675781 9.570312 0 13.21875 3.671875 3.652343 9.625 3.652343 13.296875 0l4.046875-3.636719c-2.667968-3.652344-2.355468-8.789062.960938-12.082031zm0 0" fill="#a7a9ac"/><path d="m175.089844 279.429688c-15.695313-15.597657-39.195313-21.363282-62.867188-15.421876-2.351562.589844-4.050781 2.621094-4.210937 5.023438l-3.457031 52.386719 28.292968 28.125 52.703125-3.4375c2.414063-.15625 4.457031-1.847657 5.050781-4.183594 5.976563-23.53125.179688-46.890625-15.511718-62.492187zm0 0" fill="#9b5729"/><path d="m128.359375 269.277344c-4.296875.140625-8.636719.6875-12.957031 1.679687l-3.300782 50.003907 14.4375-24.152344zm0 0" fill="#7f441c"/><path d="m123.894531 367.628906c-1.949219 1.941406-5.140625 1.941406-7.09375 0l-30.441406-30.261718c-1.949219-1.9375-1.949219-5.109376 0-7.050782l10.03125-9.964844c1.949219-1.941406 5.140625-1.941406 7.089844 0l30.441406 30.257813c1.949219 1.941406 1.949219 5.113281 0 7.050781zm0 0" fill="#8a8c8e"/><path d="m98.480469 343.722656 11.21875-11.152344c1.222656-1.214843 2.878906-1.726562 4.488281-1.578124l-10.707031-10.640626c-1.949219-1.941406-5.140625-1.941406-7.09375 0l-10.027344 9.96875c-1.949219 1.9375-1.949219 5.109376 0 7.050782l10.496094 10.429687c-.035157-1.472656.5-2.960937 1.625-4.078125zm0 0" fill="#6d6e71"/><path d="m352.695312 253.710938c-20.644531 0-37.4375 16.671874-37.4375 37.171874 0 5.621094 1.265626 10.957032 3.523438 15.738282.5625-.054688 1.128906-.082032 1.703125-.082032 1.109375 0 2.207031.097657 3.277344.292969-.1875-1.054687-.285157-2.132812-.285157-3.222656 0-4.820313 1.882813-9.347656 5.304688-12.75 3.414062-3.390625 7.945312-5.261719 12.761719-5.261719 4.816406 0 9.347656 1.867188 12.761719 5.261719l3.878906 3.855469c.34375-4.261719 2.175781-8.222656 5.246094-11.28125 3.414062-3.394532 7.945312-5.261719 12.761718-5.261719 4.820313 0 9.351563 1.867187 12.761719 5.257813l.523437.519531c-3.28125-17.195313-18.519531-30.238281-36.78125-30.238281zm0 0" fill="#ff99a3"/><path d="m320.484375 306.539062c1.109375 0 2.207031.097657 3.277344.292969-.1875-1.054687-.285157-2.132812-.285157-3.222656 0-4.496094 1.65625-8.722656 4.65625-12.035156-.003906-.230469-.015624-.460938-.015624-.691407 0-21.191406 14.847656-38.921874 34.761718-43.507812-3.273437-.753906-6.679687-1.164062-10.183594-1.164062-24.816406 0-44.9375 20-44.9375 44.671874 0 6.410157 1.367188 12.5 3.8125 18.007813 2.691407-1.527344 5.738282-2.351563 8.914063-2.351563zm0 0" fill="#f66"/><path d="m462.550781 486.546875c-1.398437 0-2.792969-.53125-3.863281-1.589844l-35.15625-34.945312c-4.097656 1.113281-8.332031 1.683593-12.589844 1.683593-12.648437 0-24.535156-4.894531-33.46875-13.773437l-71.933594-71.507813c-2-1.984374-3.097656-4.625-3.097656-7.429687s1.097656-5.441406 3.09375-7.429687c1.996094-1.980469 4.652344-3.078126 7.476563-3.078126 2.820312 0 5.476562 1.09375 7.472656 3.074219l40.765625 40.527344 6.109375-6.078125-54.347656-54.03125c-1.996094-1.980469-3.097657-4.621094-3.097657-7.429688 0-2.804687 1.101563-5.441406 3.097657-7.425781 1.996093-1.984375 4.648437-3.078125 7.472656-3.078125s5.476563 1.09375 7.472656 3.078125l54.351563 54.027344 6.113281-6.078125-54.351563-54.027344c-1.992187-1.984375-3.09375-4.621094-3.09375-7.429687 0-2.804688 1.101563-5.445313 3.09375-7.429688 1.996094-1.984375 4.652344-3.078125 7.472657-3.078125 2.824219 0 5.476562 1.09375 7.472656 3.078125l54.355469 54.027344 6.113281-6.078125-40.765625-40.519531c-1.992188-1.984375-3.09375-4.625-3.09375-7.429688 0-2.804687 1.101562-5.441406 3.097656-7.429687 1.992188-1.980469 4.644532-3.074219 7.472656-3.074219 2.824219 0 5.476563 1.09375 7.476563 3.078125l52.269531 51.960938v-18.761719c0-7.289063 5.964844-13.214844 13.292969-13.214844 7.332031 0 13.292969 5.925781 13.292969 13.214844v47.054687c6.785156 11.023438 8.695312 24.523438 5.242187 37.039063l35.125 34.917969c1.027344 1.023437 1.609375 2.414062 1.609375 3.863281s-.582031 2.839843-1.609375 3.863281l-36.484375 36.265625c-1.070312 1.0625-2.46875 1.59375-3.859375 1.59375zm0 0" fill="#ffc987"/><path d="m243.949219 272.550781h12.210937c4.144532 0 7.5-3.355469 7.5-7.5s-3.355468-7.5-7.5-7.5h-10.398437v-18.191406c0-4.144531-3.359375-7.5-7.5-7.5-4.144531 0-7.5 3.355469-7.5 7.5v20.066406c0 7.238281 5.917969 13.125 13.1875 13.125zm0 0"/><path d="m217.179688 216.253906c-2.917969-2.933594-7.667969-2.949218-10.605469-.03125-9.882813 9.820313-25.960938 9.820313-35.839844 0-2.9375-2.917968-7.6875-2.902344-10.605469.03125-2.921875 2.941406-2.90625 7.6875.03125 10.609375 7.855469 7.808594 18.171875 11.710938 28.492188 11.710938 10.320312 0 20.640625-3.90625 28.496094-11.710938 2.9375-2.921875 2.953124-7.667969.03125-10.609375zm0 0"/><path d="m305.769531 238.574219c10.316407 0 20.640625-3.902344 28.496094-11.710938 2.9375-2.921875 2.949219-7.667969.03125-10.605469s-7.667969-2.953124-10.605469-.035156c-9.882812 9.824219-25.960937 9.824219-35.84375 0-2.9375-2.917968-7.6875-2.902344-10.609375.035156-2.917969 2.9375-2.902343 7.683594.035157 10.605469 7.855468 7.808594 18.171874 11.710938 28.496093 11.710938zm0 0"/><path d="m207.480469 289.214844c-2.921875 2.9375-2.90625 7.6875.03125 10.605468 10.878906 10.8125 25.175781 16.214844 39.503906 16.214844 14.429687 0 28.882813-5.476562 39.898437-16.421875 2.9375-2.921875 2.949219-7.671875.03125-10.609375-2.917968-2.9375-7.667968-2.949218-10.605468-.03125-16.121094 16.023438-42.253906 16.117188-58.253906.210938-2.9375-2.921875-7.6875-2.90625-10.605469.03125zm0 0"/><path d="m415.386719 171.382812c12.859375 5.109376 15.792969 8.039063 20.898437 20.894532 1.585938 3.996094 5.386719 6.578125 9.683594 6.578125s8.09375-2.582031 9.679688-6.574219c5.113281-12.859375 8.042968-15.789062 20.898437-20.898438 3.996094-1.585937 6.574219-5.386718 6.574219-9.683593s-2.578125-8.097657-6.570313-9.683594c-12.859375-5.109375-15.789062-8.039063-20.902343-20.910156-1.589844-3.984375-5.390626-6.558594-9.679688-6.558594-4.292969 0-8.09375 2.574219-9.679688 6.566406-5.109374 12.863281-8.042968 15.792969-20.898437 20.902344-3.992187 1.585937-6.574219 5.386719-6.574219 9.683594 0 4.300781 2.582032 8.097656 6.570313 9.683593zm30.582031-25.417968c3.945312 7.25 8.484375 11.789062 15.738281 15.734375-7.253906 3.945312-11.792969 8.484375-15.738281 15.734375-3.945312-7.25-8.480469-11.785156-15.734375-15.734375 7.253906-3.945313 11.789063-8.484375 15.734375-15.734375zm0 0"/><path d="m31.441406 171.683594c12.859375 5.113281 15.792969 8.042968 20.898438 20.898437 1.582031 3.996094 5.382812 6.574219 9.683594 6.574219 4.292968 0 8.09375-2.574219 9.679687-6.566406 5.109375-12.863282 8.039063-15.792969 20.902344-20.90625 3.992187-1.585938 6.570312-5.382813 6.570312-9.679688s-2.578125-8.097656-6.570312-9.679687c-12.863281-5.113281-15.792969-8.042969-20.902344-20.90625-1.585937-3.992188-5.386719-6.570313-9.679687-6.570313-4.300782 0-8.101563 2.582032-9.679688 6.570313-5.109375 12.863281-8.042969 15.792969-20.90625 20.90625-3.988281 1.585937-6.566406 5.386719-6.566406 9.679687 0 4.292969 2.578125 8.09375 6.570312 9.679688zm30.582032-25.414063c3.945312 7.25 8.484374 11.789063 15.734374 15.734375-7.25 3.945313-11.789062 8.484375-15.734374 15.734375-3.945313-7.25-8.484376-11.789062-15.734376-15.734375 7.25-3.945312 11.789063-8.484375 15.734376-15.734375zm0 0"/><path d="m79.589844 57.347656c10.046875 3.992188 12.160156 6.105469 16.152344 16.152344 1.503906 3.78125 5.101562 6.226562 9.171874 6.226562 4.066407 0 7.664063-2.441406 9.164063-6.222656 3.996094-10.050781 6.109375-12.164062 16.15625-16.15625 3.78125-1.5 6.222656-5.097656 6.222656-9.167968 0-4.0625-2.4375-7.660157-6.222656-9.167969-10.046875-3.996094-12.160156-6.109375-16.152344-16.152344-1.503906-3.78125-5.101562-6.226563-9.167969-6.226563-4.070312 0-7.667968 2.441407-9.167968 6.222657-3.992188 10.046875-6.109375 12.160156-16.167969 16.160156-3.773437 1.503906-6.210937 5.101563-6.210937 9.164063 0 4.070312 2.445312 7.667968 6.222656 9.167968zm25.320312-19.082031c2.632813 4.242187 5.675782 7.285156 9.914063 9.914063-4.238281 2.628906-7.28125 5.671874-9.914063 9.910156-2.628906-4.238282-5.667968-7.28125-9.910156-9.910156 4.242188-2.632813 7.28125-5.671876 9.910156-9.914063zm0 0"/><path d="m508.179688 435.640625-4.890626-4.859375c-2.9375-2.917969-7.6875-2.90625-10.605468.03125-2.921875 2.9375-2.90625 7.6875.03125 10.605469l3.425781 3.40625-33.59375 33.394531-33.730469-33.527344c-1.898437-1.890625-4.664062-2.617187-7.253906-1.917968-3.460938.941406-7.035156 1.421874-10.625 1.421874-10.648438 0-20.660156-4.117187-28.179688-11.59375l-71.933593-71.507812c-.578125-.574219-.882813-1.304688-.882813-2.109375s.304688-1.535156.882813-2.109375c1.179687-1.171875 3.195312-1.171875 4.367187-.003906l40.769532 40.527344c2.925781 2.90625 7.648437 2.90625 10.574218-.003907l6.109375-6.078125c1.417969-1.40625 2.210938-3.320312 2.210938-5.316406s-.792969-3.910156-2.210938-5.320312l-54.347656-54.023438c-.578125-.578125-.886719-1.308594-.886719-2.113281 0-.804688.308594-1.535157.882813-2.109375 1.179687-1.171875 3.191406-1.175782 4.371093.003906l54.355469 54.023438c2.921875 2.910156 7.648438 2.90625 10.574219 0l6.113281-6.078126c1.414063-1.40625 2.210938-3.324218 2.210938-5.316406 0-2-.796875-3.914062-2.210938-5.320312l-54.351562-54.027344c-.578125-.574219-.882813-1.304688-.882813-2.109375s.304688-1.535156.882813-2.109375c1.179687-1.175781 3.1875-1.171875 4.371093 0l54.351563 54.027344c2.925781 2.90625 7.648437 2.910156 10.574219 0l6.113281-6.078125c1.417969-1.40625 2.214844-3.320313 2.214844-5.320313 0-1.996094-.796875-3.910156-2.210938-5.316406l-40.765625-40.519531c-.578125-.574219-.882812-1.304688-.882812-2.113281 0-.804688.308594-1.535157.882812-2.105469 1.179688-1.175781 3.191406-1.175781 4.375 0l52.269532 51.960937c2.148437 2.136719 5.371093 2.769532 8.167968 1.605469s4.617188-3.894531 4.617188-6.925781v-18.761719c.003906-3.148437 2.601562-5.714844 5.796875-5.714844 3.191406 0 5.792969 2.5625 5.792969 5.714844v47.054687c0 1.390626.382812 2.75 1.113281 3.933594 5.695312 9.253906 7.296875 20.59375 4.394531 31.113282-.71875 2.609374.023438 5.402343 1.945312 7.3125l5.234376 5.203124c2.9375 2.921876 7.683593 2.90625 10.605468-.03125 2.917969-2.9375 2.90625-7.6875-.03125-10.605468l-2.277344-2.265625c2.355469-12.519531.246094-25.578125-5.984374-36.695313v-45.019531c0-11.421875-9.328126-20.714844-20.796876-20.714844-11.460937.003907-20.789062 9.292969-20.792968 20.714844v.730469l-23.929688-23.789063c.410156-2.613281.628906-5.285156.628906-8.011719 0-9.015624-2.308593-17.5-6.371093-24.90625 2.519531-4.160156 3.976562-9.019531 3.976562-14.214843v-24.527344c0-10.710937-6.175781-20.019531-15.191406-24.644531v-29.261719c0-36.691406-14.414063-67.753906-41.6875-89.832031-6.832031-5.53125-14.398437-10.382813-22.558594-14.523438-3.84375-38.390625-36.503906-68.472656-76.09375-68.472656-39.59375 0-72.25 30.082031-76.097656 68.472656-8.160156 4.140625-15.726563 8.992188-22.554687 14.523438-27.273438 22.078125-41.691407 53.140625-41.691407 89.832031v29.261719c-9.011719 4.628906-15.1875 13.9375-15.1875 24.644531v24.527344c0 7.847656 3.324219 14.929687 8.636719 19.984375l-2.628906 39.863281c-2.484375.445313-4.769532 1.617187-6.585938 3.425781l-10.027344 9.96875c-2.371093 2.355469-3.675781 5.496094-3.675781 8.84375 0 2.957032 1.023438 5.75 2.894531 7.988282l-75.476562 83.011718c-3.105469 3.160156-4.8125 7.335938-4.8125 11.773438 0 4.507812 1.765625 8.746094 4.96875 11.929687 3.1875 3.171875 7.429688 4.917969 11.933594 4.917969 4.4375 0 8.609375-1.691406 11.785156-4.769531l83.566406-75.082031c2.257813 1.914062 5.089844 2.96875 8.09375 2.96875 3.339844 0 6.476563-1.292969 8.832032-3.636719l10.03125-9.96875c1.820312-1.8125 3.003906-4.089844 3.460937-6.5625l43.363281-2.828125c1.25-.082032 2.449219-.34375 3.578125-.75 6.421875 2.980468 13.191407 5.328125 20.230469 6.992187v13.933594h-49.96875c-44.855469 0-81.347656 36.296875-81.347656 80.910156v26.644531c0 7.015626 5.710937 12.726563 12.730468 12.726563h311.898438c7.023438 0 12.734375-5.710937 12.734375-12.726563v-22.355468c1.769531-.15625 3.535156-.394532 5.28125-.722656l32.230469 32.035156c2.445312 2.429687 5.695312 3.769531 9.144531 3.769531 3.453125 0 6.699219-1.339844 9.144531-3.769531l36.484375-36.269532c2.429688-2.414062 3.820313-5.761718 3.820313-9.183593.003906-3.417969-1.390625-6.769531-3.816406-9.183594zm-223.601563-75.804687c3.578125-.839844 7.085937-1.863282 10.511719-3.058594-.085938.726562-.148438 1.460937-.148438 2.207031 0 4.816406 1.886719 9.34375 5.308594 12.75l2.046875 2.03125h-17.71875zm104.375-76.40625c-3.410156-3.390626-7.941406-5.257813-12.761719-5.257813-4.816406 0-9.347656 1.867187-12.761718 5.261719-3.074219 3.058594-4.90625 7.019531-5.246094 11.28125l-3.882813-3.855469c-3.410156-3.394531-7.941406-5.261719-12.757812-5.261719-4.816407 0-9.347657 1.871094-12.761719 5.261719-3.421875 3.402344-5.304688 7.929687-5.304688 12.75 0 1.089844.097657 2.167969.285157 3.222656-1.070313-.195312-2.167969-.292969-3.28125-.292969-.570313 0-1.136719.027344-1.699219.082032-2.261719-4.78125-3.523438-10.117188-3.523438-15.738282 0-20.5 16.792969-37.171874 37.4375-37.171874 18.257813 0 33.496094 13.042968 36.777344 30.238281zm-1.210937-31.671876c0 .113282-.011719.226563-.011719.339844-6.15625-5.507812-13.617188-9.59375-21.863281-11.722656v-25.910156h8.765624c7.230469 0 13.109376 5.726562 13.109376 12.765625zm-140.53125-236.261718c28.808593 0 53.050781 19.789062 59.679687 46.402344-18.109375-6.535157-38.367187-9.984376-59.679687-9.984376s-41.570313 3.449219-59.683594 9.984376c6.632812-26.613282 30.875-46.402344 59.683594-46.402344zm-140.53125 211.734375c0-7.039063 5.882812-12.765625 13.109374-12.765625h8.765626v39.78125c-6.035157.144531-12.132813.976562-18.15625 2.488281-.796876.199219-1.558594.476563-2.28125.808594-.914063-1.738281-1.4375-3.699219-1.4375-5.785157zm-88.140626 210.417969c-.09375.085937-.183593.171874-.273437.261718-.464844.460938-.996094.558594-1.363281.558594-.363282 0-.894532-.097656-1.359375-.558594-.449219-.441406-.542969-.945312-.542969-1.289062s.09375-.847656.542969-1.292969c.089843-.085937.175781-.179687.261719-.273437l75.101562-82.59375 10.660156 10.59375zm101.808594-77.070313-26.894531-26.734375 6.480469-6.441406 26.894531 26.734375zm63.3125-21.867187-47.925781 3.125-.757813-.753907 26.867188-15.875c3.566406-2.105469 4.75-6.703125 2.640625-10.269531-2.105469-3.566406-6.703125-4.75-10.269531-2.644531l-30.082032 17.773437 17.835938-29.828125c2.125-3.558593.96875-8.160156-2.589844-10.289062-3.554687-2.125-8.15625-.964844-10.285156 2.589843l-16.011719 26.78125-.816406-.816406 3.136719-47.546875c5.023437-1.15625 10.082031-1.742187 15.058594-1.742187 15.292968 0 29.261718 5.519531 39.339843 15.535156 13.492188 13.410156 18.625 33.496094 13.859375 53.960938zm-3.285156-64.597657c-9.917969-9.859375-22.691406-16.300781-36.820312-18.761719v-69.554687h29.445312c4.144531 0 7.5-3.355469 7.5-7.5 0-4.140625-3.355469-7.5-7.5-7.5h-30.773438c-7.539062 0-13.671874 6.117187-13.671874 13.636719v15.03125h-6.6875v-26.140625c0-32.007813 12.492187-59.039063 36.128906-78.175781 22.492187-18.207032 54.175781-28.238282 89.214844-28.238282 35.039062 0 66.722656 10.03125 89.214843 28.238282 23.632813 19.136718 36.125 46.167968 36.125 78.175781v26.140625h-6.683593v-15.03125c0-7.519532-6.132813-13.636719-13.671876-13.636719h-32.175781c-13.453125 0-26.277343-7.09375-33.460937-18.503906-2.511719-4.007813-6.839844-6.394531-11.582032-6.394531-4.738281 0-9.070312 2.386718-11.582031 6.386718-7.183593 11.417969-20.003906 18.515625-33.460937 18.515625h-21.933594c-4.140625 0-7.5 3.355469-7.5 7.5 0 4.140625 3.359375 7.5 7.5 7.5h21.933594c17.886718 0 34.957031-9.078125 45.042968-23.828125 10.085938 14.746094 27.15625 23.828125 45.042969 23.828125h30.847657v52.953125c-28.070313.96875-50.609376 23.972656-50.609376 52.128906 0 8.34375 1.992188 16.230469 5.511719 23.234376-2.167969 3.023437-3.355469 6.628906-3.355469 10.425781 0 3.9375 1.28125 7.671875 3.613282 10.769531-13.464844 7.847656-29.136719 12.359375-45.863282 12.359375h-25.898437c-12.644531 0-24.6875-2.582031-35.628906-7.226563 5.289062-25-1.414063-49.585937-18.261719-66.332031zm29.867188 114.652344c8.054687 0 14.601562-6.53125 14.601562-14.558594v-11.957031c3.105469.273438 6.246094.421875 9.421875.421875h25.898437c3.171876 0 6.3125-.144531 9.414063-.421875v11.957031c0 8.027344 6.550781 14.558594 14.605469 14.558594h1.777344l-38.75 59.328125-38.75-59.328125zm-116.714844 90.28125v-24.371094c0-36.34375 29.761718-65.910156 66.347656-65.910156h.808594l58.964844 90.28125zm181.242187 0 16.769531-25.675781c2.265626-3.46875 1.289063-8.113282-2.175781-10.378906-3.46875-2.265626-8.117187-1.289063-10.382812 2.175781l-17.117188 26.210937c-2.65625 4.070313-6.890625 6.84375-11.675781 7.667969h-5.957031c-4.78125-.824219-9.015625-3.597656-11.671875-7.667969l-53.960938-82.613281h11.945313l50.386719 77.148437c1.386718 2.117188 3.746093 3.394532 6.28125 3.394532 2.53125 0 4.894531-1.277344 6.277343-3.394532l50.386719-77.148437h11.945312l-17.898437 27.402344c-2.265625 3.46875-1.289063 8.117187 2.179687 10.382812 3.464844 2.265625 8.113282 1.289063 10.378907-2.179687l16.820312-25.75 44.882813 44.617187c7.941406 7.894531 17.894531 13.054688 28.707031 15.035157v20.773437zm0 0"/><path d="m410.941406 444.195312c3.589844 0 7.164063-.480468 10.621094-1.421874 2.589844-.699219 5.355469.027343 7.257812 1.917968l33.730469 33.527344 7.480469-7.4375-36.484375-36.265625c-4.519531 1.230469-9.191406 1.855469-13.886719 1.855469-13.949218 0-27.058594-5.398438-36.914062-15.191406l-21.742188-21.613282c-1.828125-.058594-3.640625-.777344-5.042968-2.167968l-40.765626-40.527344c-1.175781-1.167969-3.1875-1.167969-4.371093.003906-.578125.574219-.882813 1.304688-.882813 2.109375 0 .808594.308594 1.535156.886719 2.109375l71.933594 71.507812c7.519531 7.476563 17.527343 11.59375 28.179687 11.59375zm0 0" fill="#ffaf68"/></svg>