<?xml version="1.0" encoding="iso-8859-1"?>
<!-- Generator: Adobe Illustrator 19.0.0, SVG Export Plug-In . SVG Version: 6.00 Build 0)  -->
<svg version="1.1" id="Layer_1" xmlns="http://www.w3.org/2000/svg" xmlns:xlink="http://www.w3.org/1999/xlink" x="0px" y="0px"
	 viewBox="0 0 512 512" style="enable-background:new 0 0 512 512;" xml:space="preserve">
<g>
	<g>
		<g>
			<path d="M224,277.333h-53.333V170.667h32c5.888,0,10.667-4.779,10.667-10.667s-4.779-10.667-10.667-10.667h-32V128h32
				c5.888,0,10.667-4.779,10.667-10.667s-4.779-10.667-10.667-10.667h-32V85.333h32c5.888,0,10.667-4.779,10.667-10.667
				S208.555,64,202.667,64h-32V42.667h32c5.888,0,10.667-4.779,10.667-10.667s-4.779-10.667-10.667-10.667h-32V10.667
				C170.667,4.779,165.888,0,160,0s-10.667,4.779-10.667,10.667v10.667h-32c-5.888,0-10.667,4.779-10.667,10.667
				s4.779,10.667,10.667,10.667h32V64h-32c-5.888,0-10.667,4.779-10.667,10.667s4.779,10.667,10.667,10.667h32v21.333h-32
				c-5.888,0-10.667,4.779-10.667,10.667S111.445,128,117.333,128h32v21.333h-32c-5.888,0-10.667,4.779-10.667,10.667
				s4.779,10.667,10.667,10.667h32v106.667H96c-5.888,0-10.667,4.779-10.667,10.667v149.333C85.333,478.507,118.827,512,160,512
				s74.667-33.493,74.667-74.667V288C234.667,282.112,229.888,277.333,224,277.333z M160,469.333c-17.643,0-32-14.357-32-32V330.667
				c0-5.888,4.779-10.667,10.667-10.667s10.667,4.779,10.667,10.667v106.667c0,5.888,4.779,10.667,10.667,10.667
				s10.667,4.779,10.667,10.667S165.888,469.333,160,469.333z"/>
			<path d="M416,106.667h-10.667v-32c0-5.888-4.779-10.667-10.667-10.667h-85.333c-5.888,0-10.667,4.779-10.667,10.667v32H288
				c-5.888,0-10.667,4.779-10.667,10.667v320C277.333,478.507,310.827,512,352,512s74.667-33.493,74.667-74.667v-320
				C426.667,111.445,421.888,106.667,416,106.667z M352,469.333c-17.643,0-32-14.357-32-32V160c0-5.888,4.779-10.667,10.667-10.667
				s10.667,4.779,10.667,10.667v277.333c0,5.888,4.779,10.667,10.667,10.667c5.888,0,10.667,4.779,10.667,10.667
				S357.888,469.333,352,469.333z"/>
		</g>
	</g>
</g>
<g>
</g>
<g>
</g>
<g>
</g>
<g>
</g>
<g>
</g>
<g>
</g>
<g>
</g>
<g>
</g>
<g>
</g>
<g>
</g>
<g>
</g>
<g>
</g>
<g>
</g>
<g>
</g>
<g>
</g>
</svg>
