<svg id="Layer_5" enable-background="new 0 0 64 64" height="512" viewBox="0 0 64 64" width="512" xmlns="http://www.w3.org/2000/svg"><g><path d="m21 41.037v11.938c2.383-.097 4.672-.543 6.656-1.285-2.295-2.221-3.964-5.132-4.637-8.493l-.141-.7 1.762-1.028c-1.172-.236-2.394-.381-3.64-.432z"/><path d="m20 57c4.227 0 8.263-.945 11.381-2.615-.692-.367-1.355-.785-1.988-1.247-2.694 1.199-5.998 1.862-9.393 1.862-7.99 0-15-3.738-15-8s7.01-8 15-8c2.478 0 4.921.362 7.115 1.025l2.277-1.328c-1.2-.475-2.488-.855-3.853-1.136-.451.273-.974.439-1.539.439h-8c-.567 0-1.091-.167-1.544-.441-6.762 1.393-11.456 5.237-11.456 9.441 0 5.514 7.626 10 17 10z"/><path d="m19 52.971v-11.942c-7.251.292-12 3.686-12 5.971s4.749 5.679 12 5.971z"/><path d="m14.776 32.267c.375-.168.787-.267 1.224-.267h8c.437 0 .849.099 1.224.267 6.949-1.982 11.776-7.796 11.776-14.267 0-8.271-7.626-15-17-15s-17 6.729-17 15c0 6.471 4.827 12.285 11.776 14.267zm5.224-26.267c7.732 0 14 5.373 14 12s-6.268 12-14 12-14-5.373-14-12 6.268-12 14-12z"/><path d="m16 34c-.552 0-1 .449-1 1s.448 1 1 1h8c.552 0 1-.449 1-1s-.448-1-1-1z"/><path d="m20 59c-7.237 0-13.539-2.57-16.746-6.34 1.35 4.725 8.335 8.34 16.746 8.34 6.19 0 11.922-2.059 14.896-5.232-.431-.113-.855-.245-1.273-.392-3.555 2.301-8.474 3.624-13.623 3.624z"/><path d="m57.007 3c-1.483 0-2.836.814-3.529 2.125l-14.022 26.485 4.702 2.351 16.171-24.258c.439-.658.671-1.424.671-2.215v-.494c0-2.202-1.791-3.994-3.993-3.994z"/><path d="m37.363 35.563 4.295 2.148 1.382-2.073-4.52-2.26z"/><path d="m25.137 43.495c1.777 7.073 8.641 11.681 15.863 10.662v-14.539l-4.964-2.482zm3.359 2.373-.992-1.736 7-4 .992 1.736zm3.285 4.757-1.563-1.249 4-5 1.563 1.249zm5.219-7.625h2v9h-2z"/><path d="m20 11v-2c-3.873 0-7.503 1.691-9.473 4.414l1.621 1.172c1.6-2.212 4.609-3.586 7.852-3.586z"/><path d="m11.268 16.307-1.904-.613c-.242.748-.364 1.524-.364 2.306h2c0-.574.09-1.143.268-1.693z"/></g></svg>