<?xml version="1.0" encoding="UTF-8" ?>
<!DOCTYPE svg PUBLIC "-//W3C//DTD SVG 1.1//EN" "http://www.w3.org/Graphics/SVG/1.1/DTD/svg11.dtd">
<svg width="512pt" height="512pt" viewBox="0 0 512 512" version="1.1" xmlns="http://www.w3.org/2000/svg">
<g id="#894019ff">
<path fill="#894019" opacity="1.00" d=" M 50.13 65.23 C 70.84 63.77 91.60 67.81 110.92 75.11 C 113.66 76.01 114.87 78.78 115.83 81.26 C 117.83 86.65 119.54 92.15 121.16 97.67 C 143.34 97.63 165.87 102.55 185.00 114.03 C 198.70 122.18 210.84 132.98 220.22 145.89 C 210.88 160.40 201.61 174.95 192.32 189.49 C 183.20 176.73 175.25 161.85 160.90 154.15 C 136.80 138.60 102.64 141.04 81.31 160.33 C 67.17 171.71 58.41 189.81 58.93 208.00 C 58.64 230.81 71.88 253.26 91.99 264.01 C 121.99 280.87 165.19 270.96 182.77 240.77 C 205.69 204.08 230.06 168.34 255.06 133.05 C 270.10 115.88 291.08 104.08 313.41 99.45 C 325.96 96.46 338.95 97.03 351.75 96.88 C 353.70 90.58 354.95 83.90 358.21 78.08 C 360.06 75.81 363.02 74.81 365.61 73.58 C 383.97 66.72 403.75 64.88 423.22 64.79 C 423.27 80.95 422.31 97.41 416.46 112.65 C 416.06 115.92 412.51 120.56 415.38 123.57 C 438.79 143.29 453.93 173.18 453.98 203.99 C 455.90 242.08 434.07 279.22 401.92 298.92 C 384.69 309.81 364.37 315.61 344.02 315.99 C 305.62 318.66 267.08 299.36 244.74 268.27 C 254.51 254.25 262.84 239.27 272.80 225.38 C 281.27 237.84 288.97 251.69 302.02 260.01 C 330.36 279.21 372.04 271.44 393.52 245.48 C 410.66 224.16 410.71 191.45 394.17 169.81 C 377.50 146.42 344.92 136.36 317.87 145.83 C 305.14 150.36 293.17 158.11 285.33 169.29 C 277.84 179.95 271.28 191.21 264.11 202.08 C 249.20 225.59 232.37 247.80 217.07 271.05 C 199.12 300.39 164.59 316.37 130.97 317.72 C 91.97 320.20 51.93 301.62 29.93 269.05 C 8.60 238.65 4.38 196.47 20.96 162.98 C 28.89 145.21 42.08 130.24 57.75 118.87 C 51.64 101.78 48.28 83.40 50.13 65.23 Z" />
<path fill="#894019" opacity="1.00" d=" M 120.39 184.52 C 132.83 182.81 146.58 192.97 145.96 206.03 C 147.64 217.86 136.86 228.69 125.39 229.42 C 115.52 230.91 104.64 225.51 101.01 215.99 C 94.22 202.60 105.29 184.45 120.39 184.52 Z" />
<path fill="#894019" opacity="1.00" d=" M 337.39 184.50 C 346.99 183.38 357.53 188.69 360.92 198.03 C 363.90 204.31 363.49 211.96 360.00 217.98 C 352.98 232.23 331.16 233.26 321.21 221.81 C 315.80 216.58 315.48 208.29 316.32 201.32 C 318.81 192.03 327.73 184.85 337.39 184.50 Z" />
<path fill="#894019" opacity="1.00" d=" M 209.50 304.30 C 213.92 292.22 222.10 281.61 231.97 273.42 C 241.28 282.27 249.91 292.59 253.89 304.99 C 249.76 317.20 241.48 328.05 231.29 335.88 C 222.01 327.11 212.70 316.91 209.50 304.30 Z" />
<path fill="#894019" opacity="1.00" d=" M 377.43 319.48 C 386.08 317.08 395.33 322.11 399.07 329.94 C 401.11 336.46 400.90 344.56 395.34 349.34 C 388.32 357.00 374.66 357.17 368.07 348.94 C 358.53 339.66 364.70 321.65 377.43 319.48 Z" />
<path fill="#894019" opacity="1.00" d=" M 311.01 331.99 C 323.67 332.01 336.33 332.01 349.00 331.99 C 349.00 370.33 349.01 408.67 348.99 447.01 C 336.33 446.98 323.66 446.98 311.00 447.01 C 310.99 408.66 310.99 370.32 311.01 331.99 Z" />
<path fill="#894019" opacity="1.00" d=" M 451.33 364.99 C 456.27 362.35 461.09 358.73 467.00 359.04 C 474.69 358.87 483.05 358.00 490.04 361.96 C 497.15 365.14 501.18 372.86 501.49 380.42 C 502.77 402.59 501.68 424.82 501.99 447.01 C 489.32 446.99 476.65 446.99 463.99 447.00 C 463.86 428.65 464.31 410.29 464.00 391.95 C 464.07 388.33 461.48 385.54 459.31 382.96 C 456.31 386.25 453.23 390.10 454.13 394.99 C 453.61 412.32 454.13 429.67 454.00 447.01 C 441.33 446.99 428.66 446.99 416.00 447.00 C 415.99 418.33 415.99 389.65 416.00 360.98 C 428.01 361.01 440.01 361.01 452.02 361.05 C 451.78 362.36 451.56 363.67 451.33 364.99 Z" />
<path fill="#894019" opacity="1.00" d=" M 215.08 361.05 C 228.05 361.00 241.02 361.00 254.00 360.99 C 254.01 389.66 254.01 418.33 254.00 447.01 C 240.97 446.98 227.96 447.00 214.94 447.00 C 216.43 418.39 216.69 389.66 215.08 361.05 Z" />
<path fill="#894019" opacity="1.00" d=" M 363.08 361.05 C 376.05 361.00 389.02 361.00 402.00 360.99 C 402.01 389.66 402.01 418.33 402.00 447.01 C 388.97 446.98 375.96 447.00 362.94 447.00 C 364.43 418.39 364.69 389.66 363.08 361.05 Z" />
</g>
</svg>
