<?xml version="1.0" encoding="UTF-8" ?>
<!DOCTYPE svg PUBLIC "-//W3C//DTD SVG 1.1//EN" "http://www.w3.org/Graphics/SVG/1.1/DTD/svg11.dtd">
<svg width="931pt" height="931pt" viewBox="0 0 931 931" version="1.1" xmlns="http://www.w3.org/2000/svg">
<g id="#3e3e3eff">
<path fill="#3e3e3e" opacity="1.00" d=" M 115.29 5.27 C 127.54 -0.98 142.68 -1.10 155.03 4.93 C 166.52 10.41 175.43 20.99 178.83 33.26 C 181.43 42.10 180.22 51.40 180.51 60.47 C 200.01 60.47 219.51 60.48 239.01 60.46 C 239.00 70.48 238.98 80.49 239.02 90.51 C 219.52 90.49 200.02 90.50 180.51 90.50 C 180.43 96.32 180.61 102.15 180.43 107.97 C 179.81 122.29 171.71 135.96 159.58 143.54 C 147.81 151.11 132.44 152.61 119.41 147.55 C 106.30 142.62 95.87 131.21 92.16 117.70 C 89.57 108.87 90.74 99.57 90.46 90.51 C 70.48 90.50 50.49 90.50 30.51 90.51 C 30.50 140.49 30.50 190.48 30.51 240.46 C 300.49 240.47 570.48 240.48 840.46 240.46 C 840.48 190.48 840.47 140.49 840.46 90.51 C 820.48 90.50 800.49 90.50 780.51 90.51 C 780.21 99.58 781.45 108.88 778.83 117.72 C 775.50 129.76 766.87 140.18 755.69 145.74 C 743.44 151.98 728.31 152.09 715.97 146.07 C 704.46 140.58 695.53 129.97 692.15 117.67 C 689.57 108.84 690.73 99.56 690.46 90.51 C 670.55 90.48 650.63 90.53 630.72 90.48 C 631.18 80.51 631.18 70.46 630.72 60.49 C 650.63 60.44 670.55 60.49 690.46 60.46 C 690.73 51.42 689.58 42.15 692.15 33.33 C 695.47 21.28 704.10 10.84 715.29 5.27 C 727.77 -1.09 743.24 -1.09 755.72 5.27 C 766.88 10.83 775.49 21.24 778.83 33.25 C 781.43 42.10 780.21 51.40 780.52 60.47 C 805.62 60.50 830.74 60.42 855.85 60.50 C 862.84 60.51 869.30 66.09 870.29 73.02 C 870.78 78.82 870.36 84.65 870.51 90.47 C 885.86 90.53 901.21 90.36 916.56 90.55 C 924.09 90.79 929.57 97.37 931.00 104.36 L 931.00 916.59 C 929.97 920.00 928.75 923.56 926.13 926.10 C 923.60 928.73 920.05 929.94 916.65 931.00 L 44.41 931.00 C 37.44 929.61 30.85 924.16 30.55 916.65 C 30.35 901.28 30.53 885.89 30.47 870.52 C 24.67 870.35 18.84 870.78 13.05 870.30 C 5.79 869.29 0.13 862.31 0.48 855.01 C 0.46 595.35 0.47 335.69 0.48 76.02 C 0.03 67.93 7.06 60.44 15.18 60.50 C 40.27 60.42 65.37 60.50 90.46 60.46 C 90.73 51.41 89.58 42.13 92.16 33.30 C 95.49 21.26 104.11 10.83 115.29 5.27 M 130.30 31.46 C 124.35 33.57 120.25 39.72 120.51 46.02 C 120.49 65.35 120.52 84.69 120.49 104.02 C 120.33 107.93 121.36 111.98 123.94 115.01 C 128.25 120.45 136.53 122.11 142.59 118.69 C 147.51 116.10 150.68 110.61 150.47 105.05 C 150.41 84.72 150.59 64.37 150.38 44.04 C 149.83 34.61 139.05 27.83 130.30 31.46 M 730.31 31.45 C 724.34 33.57 720.24 39.75 720.51 46.06 C 720.50 65.70 720.50 85.34 720.51 104.98 C 720.31 110.54 723.43 116.06 728.37 118.66 C 733.57 121.58 740.50 120.90 745.04 117.03 C 748.59 114.14 750.62 109.57 750.47 105.00 C 750.41 84.69 750.59 64.37 750.39 44.07 C 749.85 34.63 739.06 27.83 730.31 31.45 M 870.51 120.51 C 870.49 363.68 870.50 606.86 870.50 850.03 C 870.45 854.01 870.96 858.24 869.07 861.92 C 866.63 867.26 860.84 870.76 854.98 870.51 C 590.16 870.50 325.33 870.50 60.51 870.51 C 60.50 880.49 60.50 890.48 60.51 900.46 C 340.49 900.47 620.48 900.47 900.46 900.46 C 900.48 640.48 900.47 380.49 900.47 120.51 C 890.48 120.50 880.49 120.50 870.51 120.51 M 30.51 270.51 C 30.50 460.49 30.50 650.48 30.51 840.46 C 300.49 840.47 570.48 840.48 840.46 840.46 C 840.48 650.48 840.47 460.49 840.46 270.51 C 570.48 270.50 300.49 270.50 30.51 270.51 Z" />
<path fill="#3e3e3e" opacity="1.00" d=" M 415.29 5.27 C 427.76 -1.09 443.23 -1.09 455.71 5.27 C 466.89 10.83 475.51 21.26 478.84 33.31 C 481.43 42.14 480.22 51.41 480.52 60.47 C 500.01 60.46 519.51 60.48 539.01 60.46 C 539.00 70.48 538.98 80.49 539.02 90.51 C 519.52 90.49 500.02 90.51 480.51 90.50 C 480.21 99.56 481.44 108.84 478.85 117.67 C 475.59 129.48 467.23 139.76 456.36 145.40 C 444.20 151.85 429.04 152.20 416.58 146.36 C 404.77 140.94 395.57 130.16 392.14 117.63 C 389.58 108.81 390.74 99.55 390.46 90.51 C 370.55 90.48 350.64 90.53 330.72 90.49 C 331.18 80.51 331.19 70.46 330.72 60.49 C 350.63 60.44 370.55 60.49 390.46 60.46 C 390.73 51.40 389.58 42.11 392.16 33.28 C 395.50 21.25 404.12 10.83 415.29 5.27 M 430.35 31.44 C 424.39 33.54 420.26 39.69 420.51 46.00 C 420.52 65.98 420.45 85.95 420.54 105.93 C 420.56 113.62 427.38 120.42 435.06 120.47 C 443.02 120.91 450.43 113.98 450.44 105.99 C 450.49 85.67 450.49 65.35 450.45 45.04 C 450.55 35.21 439.45 27.69 430.35 31.44 Z" />
</g>
<g id="#fc4a1aff">
<path fill="#fc4a1a" opacity="1.00" d=" M 267.90 4.06 C 280.56 -1.39 295.73 -0.55 307.68 6.33 C 319.02 12.68 327.31 24.17 329.70 36.95 C 331.26 44.71 329.98 52.66 330.72 60.49 C 331.19 70.46 331.18 80.51 330.72 90.49 C 329.96 98.64 331.35 106.96 329.50 115.02 C 326.90 127.40 318.74 138.46 307.72 144.65 C 296.49 151.12 282.40 152.29 270.23 147.85 C 257.25 143.26 246.73 132.35 242.61 119.21 C 239.49 109.96 240.72 100.09 240.47 90.52 L 239.02 90.51 C 238.98 80.49 239.00 70.48 239.01 60.46 C 239.37 60.46 240.11 60.45 240.47 60.45 C 240.72 51.16 239.54 41.61 242.37 32.58 C 246.09 19.91 255.72 9.16 267.90 4.06 M 280.33 31.45 C 274.38 33.55 270.26 39.69 270.51 46.00 C 270.50 65.67 270.50 85.34 270.51 105.02 C 270.34 110.29 273.13 115.53 277.66 118.26 C 283.13 121.74 290.81 121.03 295.54 116.60 C 299.09 113.49 300.77 108.69 300.48 104.04 C 300.45 84.71 300.47 65.38 300.48 46.06 C 301.24 35.84 289.82 27.49 280.33 31.45 Z" />
<path fill="#fc4a1a" opacity="1.00" d=" M 568.65 3.75 C 581.16 -1.37 595.97 -0.41 607.69 6.33 C 619.01 12.68 627.30 24.16 629.70 36.93 C 631.26 44.70 629.98 52.65 630.72 60.49 C 631.18 70.46 631.18 80.51 630.72 90.48 C 629.96 98.63 631.35 106.94 629.51 115.00 C 626.91 127.39 618.75 138.46 607.71 144.66 C 596.72 150.98 583.00 152.24 571.02 148.13 C 557.17 143.53 546.00 131.76 542.16 117.68 C 539.58 108.85 540.73 99.57 540.47 90.52 L 539.02 90.51 C 538.98 80.49 539.00 70.48 539.01 60.46 C 539.37 60.46 540.11 60.45 540.47 60.45 C 540.71 51.14 539.54 41.58 542.38 32.54 C 546.18 19.63 556.14 8.72 568.65 3.75 M 580.34 31.44 C 573.16 33.87 569.55 41.80 570.49 49.01 C 570.54 68.00 570.44 86.99 570.54 105.98 C 570.59 113.65 577.40 120.42 585.06 120.47 C 593.05 120.91 600.48 113.92 600.45 105.90 C 600.44 85.30 600.56 64.69 600.39 44.10 C 599.87 34.66 589.10 27.84 580.34 31.44 Z" />
<path fill="#fc4a1a" opacity="1.00" d=" M 286.85 386.81 C 325.50 352.45 376.33 332.16 428.04 330.62 C 457.94 329.57 488.01 334.70 515.91 345.47 C 512.34 354.75 508.72 364.00 505.11 373.26 C 468.80 359.34 428.31 356.64 390.50 365.71 C 355.53 373.96 322.97 392.11 297.63 417.57 C 272.32 442.88 254.09 475.24 245.85 510.09 C 236.35 549.62 239.71 592.08 255.21 629.65 C 267.92 660.78 288.97 688.41 315.50 709.05 C 315.51 697.87 315.49 686.68 315.51 675.50 C 325.51 675.50 335.52 675.50 345.52 675.50 C 345.52 695.63 345.57 715.77 345.50 735.90 C 345.50 743.63 338.64 750.49 330.91 750.50 C 310.77 750.57 290.63 750.52 270.50 750.52 C 270.50 740.51 270.49 730.51 270.50 720.50 C 274.58 720.49 278.65 720.50 282.73 720.50 C 255.58 695.29 234.77 663.31 222.84 628.23 C 208.91 587.66 207.00 543.09 217.29 501.46 C 228.08 457.34 252.77 416.82 286.85 386.81 Z" />
<path fill="#fc4a1a" opacity="1.00" d=" M 525.52 374.99 C 525.54 367.35 532.35 360.54 539.99 360.52 C 560.17 360.47 580.34 360.52 600.52 360.50 C 600.54 370.51 600.53 380.52 600.52 390.53 C 596.37 390.48 592.22 390.64 588.08 390.43 C 617.04 417.02 638.62 451.51 650.21 489.06 C 661.97 526.96 663.40 567.99 654.40 606.63 C 645.82 643.79 627.47 678.61 601.79 706.79 C 574.69 736.68 539.43 759.11 500.80 770.81 C 453.44 785.30 401.27 783.51 355.09 765.53 C 358.65 756.25 362.28 746.99 365.89 737.73 C 401.10 751.23 440.24 754.21 477.06 746.07 C 509.41 739.04 539.89 723.60 564.65 701.63 C 593.15 676.45 614.10 642.78 623.86 606.01 C 634.00 568.32 632.38 527.61 619.40 490.81 C 607.22 455.88 584.73 424.67 555.53 401.97 C 555.52 413.15 555.54 424.34 555.53 435.53 C 545.52 435.53 535.51 435.54 525.50 435.52 C 525.52 415.35 525.47 395.17 525.52 374.99 Z" />
<path fill="#fc4a1a" opacity="1.00" d=" M 421.17 421.24 C 454.95 417.53 489.97 427.17 516.97 447.82 C 544.71 468.69 563.88 500.62 568.96 534.99 C 574.32 569.23 565.87 605.40 545.66 633.58 C 525.61 662.04 494.17 682.22 459.86 688.32 C 425.69 694.67 389.17 687.22 360.38 667.71 C 332.14 648.89 311.45 619.09 303.94 585.97 C 295.47 549.84 302.70 510.33 323.74 479.72 C 345.58 447.22 382.16 425.11 421.17 421.24 M 384.71 463.79 C 356.38 479.27 336.18 508.51 331.72 540.49 C 341.32 540.51 350.92 540.49 360.53 540.50 C 360.53 550.51 360.53 560.52 360.53 570.53 C 350.92 570.54 341.32 570.52 331.72 570.54 C 333.50 582.55 337.33 594.25 343.07 604.96 C 358.37 633.97 388.01 654.76 420.49 659.28 C 420.51 649.69 420.48 640.09 420.51 630.50 C 430.51 630.50 440.52 630.50 450.52 630.50 C 450.54 640.09 450.51 649.68 450.54 659.28 C 463.99 657.29 477.05 652.72 488.76 645.80 C 515.82 630.03 534.92 601.55 539.28 570.54 C 529.68 570.51 520.09 570.55 510.50 570.52 C 510.50 560.52 510.50 550.51 510.50 540.51 C 520.09 540.48 529.69 540.51 539.28 540.49 C 537.51 528.47 533.68 516.77 527.94 506.05 C 512.65 477.04 483.02 456.26 450.54 451.72 C 450.52 461.32 450.54 470.92 450.53 480.53 C 440.52 480.53 430.51 480.53 420.50 480.53 C 420.49 470.92 420.51 461.32 420.49 451.72 C 407.97 453.57 395.78 457.65 384.71 463.79 Z" />
<path fill="#fc4a1a" opacity="1.00" d=" M 420.50 510.50 C 430.51 510.49 440.51 510.50 450.52 510.50 C 450.54 523.44 450.53 536.39 450.52 549.34 C 464.07 562.85 477.64 576.34 491.18 589.86 C 484.08 596.97 476.97 604.08 469.86 611.18 C 455.01 596.36 440.20 581.51 425.35 566.69 C 422.43 563.92 420.54 560.03 420.52 555.98 C 420.47 540.82 420.51 525.66 420.50 510.50 Z" />
</g>
</svg>
