<?xml version="1.0" encoding="UTF-8" ?>
<!DOCTYPE svg PUBLIC "-//W3C//DTD SVG 1.1//EN" "http://www.w3.org/Graphics/SVG/1.1/DTD/svg11.dtd">
<svg width="901pt" height="901pt" viewBox="0 0 901 901" version="1.1" xmlns="http://www.w3.org/2000/svg">
<g id="#3e3e3eff">
<path fill="#3e3e3e" opacity="1.00" d=" M 394.39 5.36 C 397.35 2.17 401.65 0.35 406.02 0.47 C 505.66 0.47 605.30 0.47 704.94 0.47 C 710.51 0.26 716.06 3.35 718.68 8.29 C 720.39 11.21 720.45 14.70 720.51 17.99 C 720.50 91.99 720.50 165.99 720.51 239.99 C 720.64 244.11 719.04 248.23 716.10 251.13 C 697.59 269.67 679.03 288.18 660.52 306.74 C 719.32 331.51 768.64 377.86 797.09 434.97 C 826.61 493.42 833.40 562.78 816.19 625.92 C 800.36 685.02 763.55 738.10 714.02 773.97 C 687.54 793.23 657.55 807.66 625.93 816.19 C 590.54 825.77 553.20 827.96 516.93 822.76 C 454.96 814.06 396.64 782.64 354.91 736.07 C 331.11 709.69 312.57 678.58 300.76 645.07 C 286.97 606.08 282.47 563.88 287.46 522.83 C 291.87 486.22 304.01 450.57 322.79 418.84 C 348.60 375.02 387.06 338.86 432.22 315.50 C 405.33 315.53 378.45 315.45 351.57 315.54 C 313.41 348.04 283.10 389.69 264.09 436.08 C 250.91 468.14 243.03 502.40 241.06 537.01 C 240.84 540.24 240.96 543.64 239.53 546.64 C 237.26 551.87 231.77 555.52 226.06 555.48 C 195.86 555.52 165.67 555.50 135.48 555.50 C 135.47 545.49 135.47 535.48 135.48 525.48 C 160.91 525.45 186.35 525.50 211.78 525.45 C 216.12 475.16 231.81 425.92 257.21 382.31 C 276.50 349.10 301.40 319.18 330.47 294.08 C 330.47 276.22 330.48 258.37 330.47 240.51 C 270.47 240.49 210.47 240.51 150.48 240.49 C 150.47 230.49 150.47 220.48 150.48 210.48 C 210.47 210.46 270.47 210.48 330.46 210.46 C 330.48 167.31 330.47 124.15 330.47 80.99 C 330.24 75.62 330.29 69.54 334.37 65.45 C 354.31 45.36 374.40 25.41 394.39 5.36 M 381.80 60.46 C 417.66 60.48 453.51 60.47 489.37 60.47 L 488.90 60.96 C 510.94 60.99 532.98 60.93 555.02 60.99 C 556.16 61.01 557.29 60.85 558.39 60.51 C 585.31 60.45 612.23 60.44 639.15 60.52 C 649.26 50.60 659.21 40.52 669.22 30.51 C 633.40 30.48 597.59 30.53 561.77 30.48 L 561.16 31.08 C 547.13 30.73 533.07 31.38 519.06 30.75 C 515.74 30.32 512.39 30.54 509.06 30.51 C 476.66 30.47 444.26 30.56 411.86 30.46 C 401.76 40.38 391.81 50.45 381.80 60.46 M 660.49 81.78 C 660.52 142.59 660.49 203.40 660.51 264.22 C 670.53 254.24 680.56 244.26 690.50 234.20 C 690.43 173.41 690.50 112.61 690.46 51.81 C 680.44 61.77 670.45 71.76 660.49 81.78 M 468.37 89.56 L 468.48 90.50 C 432.49 90.51 396.50 90.49 360.51 90.51 C 360.50 155.49 360.50 220.48 360.51 285.46 C 450.49 285.47 540.48 285.48 630.46 285.46 C 630.47 220.48 630.47 155.49 630.46 90.51 C 594.07 90.48 557.68 90.53 521.29 90.48 C 521.11 90.25 520.75 89.78 520.57 89.54 C 503.17 89.48 485.77 89.46 468.37 89.56 M 449.05 340.61 C 449.23 341.07 449.58 341.97 449.75 342.42 C 448.38 341.89 447.11 342.02 445.96 342.80 C 438.31 347.20 430.76 351.78 422.98 355.94 C 422.49 356.19 421.51 356.68 421.03 356.93 C 395.28 374.40 372.97 396.92 355.73 422.82 C 372.85 432.69 389.94 442.61 407.08 452.43 C 402.19 461.18 397.09 469.81 392.09 478.49 C 374.90 468.75 357.97 458.47 340.62 449.03 C 326.72 477.57 318.17 508.76 316.29 540.48 C 317.69 540.52 319.09 540.55 320.49 540.56 C 318.92 540.90 317.39 541.34 315.84 541.76 C 315.78 550.51 315.86 559.25 315.80 568.00 C 315.86 569.37 315.55 570.90 316.39 572.13 C 318.65 603.32 326.79 634.15 340.90 662.09 C 357.96 652.20 375.04 642.36 392.12 632.51 C 397.11 641.20 402.24 649.81 407.10 658.58 C 389.96 668.39 372.87 678.31 355.76 688.18 C 373.40 714.69 396.34 737.66 422.87 755.27 C 423.13 754.82 423.64 753.93 423.90 753.48 C 423.93 754.32 424.00 755.99 424.03 756.83 C 432.42 761.08 440.76 765.45 448.98 770.01 C 477.27 784.58 508.79 792.65 540.50 794.71 C 540.50 774.97 540.49 755.24 540.51 735.50 C 550.51 735.49 560.52 735.49 570.52 735.50 C 570.54 755.23 570.52 774.95 570.53 794.68 C 602.07 792.77 633.18 784.44 661.52 770.48 L 661.02 771.86 C 670.15 766.44 679.16 760.81 688.20 755.24 C 714.69 737.60 737.65 714.67 755.27 688.16 C 738.15 678.31 721.09 668.36 703.93 658.58 C 708.77 649.80 713.92 641.19 718.91 632.49 C 735.96 642.35 753.06 652.14 770.08 662.08 C 783.36 636.02 791.24 607.34 794.14 578.27 C 795.34 571.28 794.70 564.06 795.21 556.99 C 795.34 551.48 796.04 545.91 794.44 540.54 C 794.43 531.33 792.88 522.18 791.41 513.11 C 787.43 490.84 780.27 469.13 770.16 448.89 C 753.07 458.75 735.99 468.63 718.89 478.48 C 713.89 469.80 708.80 461.16 703.90 452.42 C 721.04 442.59 738.14 432.68 755.25 422.80 C 737.69 396.33 714.74 373.52 688.39 355.81 L 688.99 355.01 C 680.05 350.25 670.94 345.79 662.06 340.93 C 633.71 326.46 602.23 318.32 570.50 316.29 C 570.49 336.03 570.51 355.78 570.50 375.52 C 560.49 375.53 550.48 375.53 540.48 375.52 C 540.46 355.78 540.48 336.03 540.47 316.28 C 508.76 318.16 477.57 326.67 449.05 340.61 Z" />
<path fill="#3e3e3e" opacity="1.00" d=" M 60.48 150.50 C 120.48 150.50 180.49 150.49 240.50 150.51 C 240.51 160.51 240.50 170.52 240.50 180.52 C 180.49 180.54 120.48 180.53 60.48 180.52 C 60.47 170.52 60.46 160.51 60.48 150.50 Z" />
<path fill="#3e3e3e" opacity="1.00" d=" M 804.97 363.31 C 812.89 357.19 820.81 351.06 828.74 344.96 C 863.63 389.98 887.20 443.76 896.11 500.06 C 898.86 516.37 899.79 532.91 901.00 549.39 L 901.00 563.35 C 899.72 576.52 899.23 589.77 897.27 602.88 C 888.70 665.95 861.94 726.34 821.28 775.28 C 784.74 819.46 737.10 854.40 683.88 875.75 C 651.09 888.95 616.25 897.02 581.00 899.57 C 575.12 899.96 569.25 900.42 563.40 901.00 L 550.38 901.00 C 534.52 899.94 518.62 898.97 502.91 896.46 C 425.84 884.69 353.47 845.54 300.95 788.00 C 256.87 740.15 226.90 679.57 215.63 615.50 C 163.92 615.57 112.21 615.52 60.51 615.52 C 60.49 605.52 60.49 595.51 60.51 585.51 C 114.68 585.48 168.85 585.51 223.03 585.49 C 227.06 585.52 231.34 585.07 235.06 586.97 C 239.79 589.17 242.98 593.98 243.52 599.12 C 246.98 624.11 253.48 648.69 262.87 672.11 C 285.70 729.35 325.90 779.42 376.62 814.40 C 428.04 850.17 490.33 870.12 553.00 870.46 C 619.02 871.22 685.00 850.28 738.56 811.68 C 790.09 774.87 830.19 722.25 851.71 662.66 C 876.45 594.82 876.73 518.41 852.55 450.38 C 841.49 419.06 825.23 389.63 804.97 363.31 Z" />
</g>
<g id="#fc4a1aff">
<path fill="#fc4a1a" opacity="1.00" d=" M 519.06 30.75 C 533.07 31.38 547.13 30.73 561.16 31.08 C 551.37 40.87 541.56 50.65 531.80 60.46 C 540.66 60.50 549.53 60.42 558.39 60.51 C 557.29 60.85 556.16 61.01 555.02 60.99 C 532.98 60.93 510.94 60.99 488.90 60.96 L 489.37 60.47 C 499.20 50.50 509.13 40.62 519.06 30.75 Z" />
<path fill="#fc4a1a" opacity="1.00" d=" M 468.37 89.56 C 485.77 89.46 503.17 89.48 520.57 89.54 C 520.75 89.78 521.11 90.25 521.29 90.48 C 517.71 90.50 514.12 90.50 510.53 90.51 C 510.52 115.50 510.54 140.50 510.53 165.50 C 500.52 165.50 490.51 165.51 480.50 165.49 C 480.50 140.49 480.50 115.50 480.49 90.51 C 476.49 90.50 472.48 90.50 468.48 90.50 L 468.37 89.56 Z" />
<path fill="#fc4a1a" opacity="1.00" d=" M 0.47 150.50 C 10.48 150.50 20.49 150.50 30.50 150.50 C 30.50 160.51 30.50 170.52 30.50 180.53 C 20.49 180.53 10.48 180.53 0.47 180.53 C 0.47 170.52 0.47 160.51 0.47 150.50 Z" />
<path fill="#fc4a1a" opacity="1.00" d=" M 90.50 210.50 C 100.51 210.49 110.51 210.50 120.52 210.50 C 120.54 220.51 120.53 230.52 120.53 240.53 C 110.52 240.53 100.51 240.54 90.50 240.52 C 90.50 230.51 90.49 220.51 90.50 210.50 Z" />
<path fill="#fc4a1a" opacity="1.00" d=" M 754.77 311.11 C 761.85 304.06 768.90 296.97 775.98 289.92 C 786.00 299.91 796.01 309.93 806.01 319.94 C 798.83 326.96 791.97 334.33 784.58 341.11 C 774.79 330.97 764.63 321.18 754.77 311.11 Z" />
<path fill="#fc4a1a" opacity="1.00" d=" M 662.06 340.93 C 670.94 345.79 680.05 350.25 688.99 355.01 L 688.39 355.81 C 686.83 357.84 685.62 360.10 684.36 362.33 C 675.76 377.25 667.12 392.15 658.54 407.09 C 649.83 402.13 641.18 397.09 632.50 392.08 C 642.35 375.03 652.17 357.96 662.06 340.93 Z" />
<path fill="#fc4a1a" opacity="1.00" d=" M 445.96 342.80 C 447.11 342.02 448.38 341.89 449.75 342.42 C 459.42 358.86 468.86 375.45 478.42 391.96 C 469.75 396.97 461.09 402.00 452.39 406.98 C 442.62 389.95 432.71 372.99 422.98 355.94 C 430.76 351.78 438.31 347.20 445.96 342.80 Z" />
<path fill="#fc4a1a" opacity="1.00" d=" M 585.81 503.95 C 607.20 482.61 628.49 461.18 649.93 439.90 C 657.00 446.96 664.07 454.02 671.13 461.09 C 649.78 482.47 628.40 503.82 607.04 525.19 C 612.82 535.05 616.02 546.50 615.46 557.97 C 614.89 574.29 607.18 590.17 594.81 600.81 C 584.40 609.91 570.76 615.23 556.92 615.49 C 543.09 615.88 529.21 611.23 518.38 602.63 C 506.68 593.46 498.58 579.80 496.26 565.11 C 493.83 550.38 497.15 534.79 505.47 522.39 C 515.13 507.66 531.54 497.60 549.08 495.83 C 561.80 494.35 574.82 497.48 585.81 503.95 M 547.41 526.63 C 541.55 528.27 536.24 531.75 532.37 536.45 C 523.31 547.02 523.29 563.93 532.34 574.51 C 541.14 585.67 558.23 588.84 570.42 581.49 C 582.87 574.63 588.86 558.32 583.60 545.06 C 578.62 530.81 561.90 522.19 547.41 526.63 Z" />
<path fill="#fc4a1a" opacity="1.00" d=" M 75.50 525.50 C 85.51 525.49 95.51 525.50 105.52 525.50 C 105.54 535.51 105.53 545.52 105.53 555.53 C 95.52 555.53 85.51 555.54 75.50 555.52 C 75.50 545.51 75.49 535.51 75.50 525.50 Z" />
<path fill="#fc4a1a" opacity="1.00" d=" M 735.47 540.48 C 755.13 540.51 774.79 540.38 794.44 540.54 C 796.04 545.91 795.34 551.48 795.21 556.99 C 794.70 564.06 795.34 571.28 794.14 578.27 C 794.34 575.68 794.51 573.09 794.70 570.50 C 774.96 570.50 755.22 570.51 735.47 570.50 C 735.46 560.49 735.47 550.48 735.47 540.48 Z" />
<path fill="#fc4a1a" opacity="1.00" d=" M 315.84 541.76 C 317.39 541.34 318.92 540.90 320.49 540.56 C 338.83 540.42 357.18 540.54 375.52 540.50 C 375.54 550.51 375.53 560.52 375.53 570.53 C 355.78 570.53 336.04 570.53 316.30 570.53 L 316.39 572.13 C 315.55 570.90 315.86 569.37 315.80 568.00 C 315.86 559.25 315.78 550.51 315.84 541.76 Z" />
<path fill="#fc4a1a" opacity="1.00" d=" M 0.47 585.50 C 10.48 585.50 20.49 585.49 30.50 585.50 C 30.50 595.51 30.50 605.52 30.50 615.53 C 20.49 615.53 10.48 615.53 0.47 615.53 C 0.47 605.52 0.47 595.51 0.47 585.50 Z" />
<path fill="#fc4a1a" opacity="1.00" d=" M 452.43 704.01 C 461.11 708.99 469.78 714.01 478.45 719.03 C 468.63 736.02 458.87 753.06 448.98 770.01 C 440.76 765.45 432.42 761.08 424.03 756.83 C 424.00 755.99 423.93 754.32 423.90 753.48 C 433.35 736.96 442.94 720.51 452.43 704.01 Z" />
<path fill="#fc4a1a" opacity="1.00" d=" M 632.52 718.89 C 641.19 713.88 649.85 708.85 658.54 703.88 C 668.42 721.01 678.30 738.13 688.20 755.24 C 679.16 760.81 670.15 766.44 661.02 771.86 L 661.52 770.48 L 661.82 769.68 C 652.09 752.73 642.27 735.83 632.52 718.89 Z" />
</g>
</svg>
