<?xml version="1.0" encoding="UTF-8" ?>
<!DOCTYPE svg PUBLIC "-//W3C//DTD SVG 1.1//EN" "http://www.w3.org/Graphics/SVG/1.1/DTD/svg11.dtd">
<svg width="961pt" height="961pt" viewBox="0 0 961 961" version="1.1" xmlns="http://www.w3.org/2000/svg">
<g id="#3e3e3eff">
<path fill="#3e3e3e" opacity="1.00" d=" M 212.61 31.61 C 251.45 11.36 295.18 0.62 338.98 0.48 C 423.65 0.46 508.32 0.47 592.99 0.47 C 613.04 0.57 633.17 -0.16 653.11 2.43 C 708.72 8.93 762.03 32.98 803.89 70.11 C 853.05 113.28 886.25 174.25 895.27 239.09 C 898.83 262.06 898.02 285.36 898.09 308.51 C 888.71 308.49 879.32 308.49 869.94 308.51 C 869.94 300.34 869.93 292.16 869.94 283.98 C 870.22 261.82 867.93 239.60 862.51 218.09 C 847.77 158.22 809.75 104.63 758.41 70.56 C 724.95 48.16 685.99 34.06 645.93 29.97 C 627.68 27.95 609.29 28.81 590.97 28.62 C 506.65 28.63 422.32 28.60 338.00 28.64 C 311.20 28.87 284.45 33.45 259.12 42.20 C 210.36 58.93 167.17 91.26 137.21 133.19 C 108.82 172.58 92.37 220.42 90.65 268.95 C 90.28 282.12 90.56 295.31 90.46 308.48 C 81.08 308.51 71.70 308.51 62.31 308.48 C 62.32 298.33 62.30 288.18 62.32 278.03 C 62.32 235.36 72.37 192.73 91.50 154.59 C 117.57 102.20 160.63 58.49 212.61 31.61 Z" />
<path fill="#3e3e3e" opacity="1.00" d=" M 242.96 85.84 C 274.07 69.96 309.09 62.06 343.98 62.56 C 350.65 62.88 358.51 61.08 363.91 66.12 C 370.30 71.44 370.12 82.38 363.56 87.49 C 358.43 92.04 351.21 90.46 344.98 90.71 C 319.50 90.27 293.90 94.71 270.27 104.33 C 239.24 116.83 211.72 137.84 191.38 164.39 C 171.43 190.29 158.42 221.49 154.21 253.92 C 151.69 272.01 152.89 290.31 152.57 308.51 C 143.20 308.49 133.83 308.49 124.46 308.51 C 124.42 298.00 124.44 287.49 124.45 276.99 C 124.61 245.96 131.61 214.99 144.85 186.93 C 165.14 143.59 200.25 107.42 242.96 85.84 Z" />
<path fill="#3e3e3e" opacity="1.00" d=" M 403.55 64.60 C 407.54 62.02 412.48 62.64 416.99 62.59 C 481.68 62.60 546.36 62.59 611.04 62.59 C 628.44 62.27 645.91 63.32 662.97 66.89 C 711.38 76.55 755.94 103.68 787.11 141.91 C 811.70 171.84 828.03 208.50 833.62 246.85 C 836.86 267.25 835.78 287.95 835.97 308.51 C 826.58 308.49 817.20 308.49 807.81 308.51 C 807.63 293.69 808.27 278.83 807.23 264.03 C 803.86 217.52 782.08 172.79 747.87 141.15 C 721.43 116.44 687.73 99.58 652.04 93.49 C 632.57 89.83 612.71 90.90 593.02 90.75 C 532.32 90.74 471.63 90.77 410.93 90.73 C 405.37 90.83 399.98 87.32 397.86 82.18 C 395.08 75.95 397.64 68.00 403.55 64.60 Z" />
<path fill="#3e3e3e" opacity="1.00" d=" M 62.30 544.99 C 62.33 518.32 62.31 491.65 62.31 464.99 C 71.70 465.02 81.09 464.98 90.48 465.01 C 90.40 491.31 90.59 517.62 90.38 543.92 C 101.73 544.23 113.08 543.98 124.43 544.05 C 124.44 517.70 124.44 491.34 124.43 464.99 C 133.82 465.01 143.21 465.00 152.60 464.99 C 152.59 476.78 152.59 488.56 152.60 500.35 C 157.53 498.64 162.70 497.46 167.95 497.48 C 186.31 497.46 204.66 497.48 223.02 497.47 C 230.09 497.54 237.30 496.96 244.19 498.96 C 258.73 502.76 270.82 514.53 275.01 528.97 C 277.39 536.42 276.78 544.32 276.84 552.02 C 276.82 562.04 276.88 572.05 276.83 582.07 C 276.94 586.66 274.69 591.22 270.91 593.85 C 266.52 597.04 260.25 597.31 255.60 594.50 C 251.26 592.00 248.54 587.06 248.69 582.05 C 248.64 568.39 248.76 554.73 248.65 541.07 C 248.61 532.82 241.23 525.52 232.97 525.65 C 211.34 525.62 189.70 525.59 168.06 525.66 C 159.53 525.63 152.16 533.51 152.59 542.00 C 152.60 635.68 152.58 729.36 152.60 823.04 C 152.30 831.43 159.64 839.10 168.04 839.10 C 189.36 839.23 210.70 839.12 232.03 839.16 C 238.27 839.41 244.46 835.78 247.10 830.10 C 249.16 826.03 248.64 821.37 248.69 816.98 C 248.68 757.97 248.68 698.97 248.69 639.96 C 248.57 635.22 251.03 630.54 255.01 627.98 C 259.48 624.95 265.72 624.89 270.25 627.82 C 274.37 630.35 276.93 635.12 276.82 639.96 C 276.87 700.65 276.83 761.34 276.85 822.03 C 277.67 841.93 263.33 861.07 244.00 865.84 C 237.83 867.58 231.37 867.32 225.03 867.31 C 206.02 867.29 187.01 867.35 168.00 867.29 C 156.46 867.23 145.07 862.33 137.03 854.06 C 128.35 845.36 123.88 832.95 124.39 820.72 C 108.25 820.71 92.12 820.72 75.98 820.72 C 53.63 821.33 31.36 811.15 17.21 793.84 C 6.35 780.83 0.19 763.99 0.19 747.03 C 0.19 704.02 0.19 661.01 0.19 618.00 C 0.13 600.78 6.42 583.66 17.55 570.53 C 28.79 557.03 44.98 547.86 62.30 544.99 M 48.32 580.26 C 36.03 588.58 28.24 603.14 28.35 618.01 C 28.34 657.33 28.35 696.65 28.34 735.97 C 28.41 744.01 27.75 752.26 30.34 760.02 C 35.65 778.17 53.16 791.87 72.10 792.49 C 89.54 792.64 107.00 792.54 124.44 792.54 C 124.43 776.05 124.45 759.56 124.43 743.07 C 112.95 743.01 101.47 743.15 89.99 743.00 C 78.57 742.64 67.92 734.75 64.08 724.00 C 62.32 719.54 62.20 714.69 62.31 709.96 C 62.34 689.96 62.28 669.96 62.33 649.97 C 62.36 635.57 74.69 622.62 89.05 621.81 C 100.86 621.54 112.67 621.87 124.48 621.65 C 124.35 605.16 124.54 588.67 124.38 572.18 C 107.58 572.27 90.78 572.19 73.97 572.23 C 64.87 572.24 55.81 575.10 48.32 580.26 M 90.50 714.71 C 101.79 715.16 113.12 714.78 124.42 714.91 C 124.45 693.23 124.44 671.56 124.43 649.88 C 113.17 649.86 101.92 649.89 90.66 649.87 C 90.23 671.47 90.56 693.10 90.50 714.71 Z" />
<path fill="#3e3e3e" opacity="1.00" d=" M 807.80 465.00 C 817.20 464.99 826.59 465.02 835.99 464.98 C 835.95 491.34 835.97 517.69 835.98 544.05 C 847.29 544.06 858.61 544.07 869.93 544.05 C 869.94 517.69 869.94 491.34 869.93 464.99 C 879.32 465.02 888.71 464.99 898.10 465.00 C 898.09 491.66 898.09 518.33 898.11 545.00 C 914.17 547.67 929.27 555.73 940.34 567.70 C 952.23 580.43 959.50 597.47 960.09 614.91 C 959.96 659.93 959.95 704.95 960.10 749.96 C 959.48 766.93 952.58 783.53 941.21 796.12 C 930.03 808.58 914.52 817.19 897.94 819.73 C 878.75 819.24 859.53 819.57 840.33 819.56 C 840.37 819.85 840.46 820.43 840.51 820.72 C 839.00 820.71 837.50 820.71 836.02 820.73 C 836.23 829.66 834.21 838.74 829.39 846.34 C 821.78 858.84 807.64 867.06 792.98 867.27 C 775.99 867.37 758.99 867.28 742.00 867.31 C 734.98 867.15 727.90 867.73 720.92 866.78 C 705.43 864.56 691.71 853.33 686.34 838.66 C 684.31 833.35 683.47 827.65 683.55 821.99 C 683.58 730.32 683.56 638.66 683.56 547.00 C 683.31 539.51 683.81 531.84 686.82 524.89 C 693.06 509.18 709.01 497.90 725.94 497.51 C 747.95 497.42 769.96 497.49 791.97 497.47 C 797.38 497.42 802.73 498.58 807.81 500.37 C 807.80 488.58 807.82 476.79 807.80 465.00 M 722.39 526.51 C 715.96 528.66 711.41 535.26 711.71 542.05 C 711.73 635.69 711.71 729.32 711.72 822.95 C 711.54 829.21 715.46 835.32 721.21 837.77 C 725.22 839.64 729.75 839.07 734.04 839.16 C 753.34 839.14 772.65 839.20 791.96 839.13 C 800.49 839.30 808.06 831.59 807.79 823.07 C 807.84 730.74 807.79 638.40 807.82 546.06 C 807.78 542.72 808.06 539.26 806.82 536.09 C 804.67 529.97 798.47 525.56 791.97 525.64 C 771.98 525.60 751.98 525.64 731.98 525.62 C 728.77 525.63 725.46 525.38 722.39 526.51 M 835.98 572.22 C 835.98 588.72 835.92 605.22 836.01 621.72 C 847.34 621.73 858.68 621.68 870.01 621.74 C 881.58 621.94 892.43 629.90 896.31 640.77 C 898.82 647.22 897.93 654.24 898.09 661.00 C 898.06 679.00 898.16 697.00 898.05 715.00 C 897.90 729.77 884.82 742.85 870.05 743.02 C 858.69 743.13 847.33 743.02 835.98 743.07 C 836.00 759.58 835.88 776.08 836.04 792.59 C 853.32 792.48 870.60 792.66 887.87 792.50 C 906.59 792.06 924.06 778.83 929.73 761.02 C 932.82 752.35 931.93 743.04 932.06 734.02 C 932.01 694.69 932.16 655.35 931.98 616.01 C 931.44 593.32 911.71 573.26 889.04 572.31 C 871.36 572.10 853.66 572.28 835.98 572.22 M 835.98 649.88 C 835.96 671.55 835.96 693.23 835.98 714.90 C 847.24 714.87 858.51 714.99 869.78 714.84 C 870.10 693.24 869.93 671.62 869.86 650.01 C 858.57 649.70 847.27 649.95 835.98 649.88 Z" />
</g>
<g id="#fc4a1aff">
<path fill="#fc4a1a" opacity="1.00" d=" M 62.31 308.48 C 71.70 308.51 81.08 308.51 90.46 308.48 C 90.46 309.12 90.45 310.39 90.45 311.03 C 101.77 311.09 113.11 311.21 124.44 310.98 C 124.44 310.36 124.45 309.13 124.46 308.51 C 133.83 308.49 143.20 308.49 152.57 308.51 C 152.57 309.11 152.57 310.31 152.57 310.91 C 159.00 311.01 165.58 312.30 170.90 316.11 C 178.70 321.33 183.64 330.51 183.64 339.91 C 183.68 371.29 183.65 402.67 183.65 434.05 C 183.77 442.09 180.38 450.09 174.50 455.57 C 168.71 461.17 160.58 463.82 152.60 463.55 C 152.60 463.91 152.60 464.63 152.60 464.99 C 143.21 465.00 133.82 465.01 124.43 464.99 L 124.42 463.50 C 113.11 463.49 101.80 463.51 90.49 463.49 C 90.49 463.87 90.48 464.63 90.48 465.01 C 81.09 464.98 71.70 465.02 62.31 464.99 C 62.31 464.63 62.30 463.91 62.30 463.56 C 55.27 463.73 48.10 461.84 42.54 457.42 C 35.38 451.95 31.05 443.01 31.25 434.00 C 31.26 402.65 31.24 371.31 31.25 339.97 C 31.24 332.20 34.57 324.53 40.19 319.18 C 46.00 313.46 54.23 310.72 62.31 311.02 C 62.31 310.39 62.31 309.12 62.31 308.48 M 59.42 339.45 C 59.40 368.97 59.41 398.49 59.41 428.01 C 59.42 430.46 59.23 432.94 59.69 435.36 C 91.60 435.24 123.51 435.52 155.42 435.22 C 155.62 404.47 155.42 373.72 155.52 342.96 C 155.55 341.69 155.43 340.44 155.15 339.20 C 123.24 339.45 91.31 338.95 59.42 339.45 Z" />
<path fill="#fc4a1a" opacity="1.00" d=" M 807.81 308.51 C 817.20 308.49 826.58 308.49 835.97 308.51 C 835.97 309.15 835.97 310.44 835.98 311.09 C 847.29 311.09 858.61 311.09 869.93 311.09 C 869.93 310.44 869.94 309.16 869.94 308.51 C 879.32 308.49 888.71 308.49 898.09 308.51 C 898.10 309.14 898.10 310.40 898.10 311.03 C 903.43 310.95 908.87 311.83 913.60 314.42 C 922.96 319.25 929.21 329.47 929.14 340.02 C 929.18 371.32 929.15 402.61 929.16 433.91 C 929.39 444.04 923.89 454.03 915.20 459.23 C 910.12 462.45 904.05 463.64 898.11 463.54 C 898.11 463.91 898.11 464.63 898.10 465.00 C 888.71 464.99 879.32 465.02 869.93 464.99 L 869.92 463.50 C 858.61 463.50 847.31 463.50 836.00 463.50 L 835.99 464.98 C 826.59 465.02 817.20 464.99 807.80 465.00 C 807.80 464.63 807.80 463.91 807.80 463.55 C 800.19 463.80 792.43 461.45 786.71 456.32 C 780.31 450.80 776.56 442.40 776.74 433.94 C 776.76 402.62 776.74 371.29 776.75 339.97 C 776.70 330.39 781.84 321.06 789.86 315.86 C 795.11 312.29 801.52 310.88 807.81 311.03 C 807.81 310.40 807.81 309.14 807.81 308.51 M 805.10 339.26 C 804.74 342.85 804.95 346.46 804.91 350.05 C 804.92 378.44 804.87 406.82 804.93 435.20 C 818.94 435.53 832.97 435.25 846.98 435.34 C 864.97 435.24 882.97 435.55 900.95 435.19 C 900.94 403.22 901.22 371.24 900.81 339.28 C 868.91 339.22 837.01 339.25 805.10 339.26 Z" />
<path fill="#fc4a1a" opacity="1.00" d=" M 840.33 819.56 C 859.53 819.57 878.75 819.24 897.94 819.73 C 892.87 820.64 887.70 820.73 882.57 820.74 C 882.54 831.84 882.60 842.93 882.54 854.03 C 882.43 870.94 876.41 887.71 865.79 900.86 C 854.23 915.35 837.23 925.40 818.91 928.39 C 811.02 929.79 802.97 929.38 795.00 929.44 C 736.20 929.45 677.39 929.43 618.59 929.45 C 618.90 937.96 615.77 946.64 609.47 952.48 C 604.42 957.50 597.46 959.78 590.61 961.00 L 431.73 961.00 C 426.70 959.92 421.55 958.71 417.23 955.79 C 409.28 950.69 404.10 941.52 404.02 932.06 C 403.98 921.05 404.00 910.04 404.01 899.04 C 403.91 887.46 411.56 876.42 422.32 872.26 C 427.90 869.85 434.07 870.17 440.00 870.22 C 489.69 870.22 539.37 870.23 589.06 870.21 C 598.56 870.00 607.95 874.86 613.31 882.70 C 617.18 888.06 618.71 894.74 618.59 901.28 C 681.71 901.24 744.83 901.36 807.95 901.23 C 831.34 900.95 852.36 881.20 854.15 857.89 C 854.71 845.51 854.26 833.11 854.40 820.72 C 849.77 820.71 845.13 820.71 840.51 820.72 C 840.46 820.43 840.37 819.85 840.33 819.56 M 432.40 898.37 C 431.85 909.60 432.30 920.88 432.17 932.13 C 464.18 932.62 496.22 932.21 528.25 932.34 C 528.26 921.02 528.24 909.71 528.26 898.40 C 496.30 898.34 464.35 898.41 432.40 898.37 M 556.41 898.38 C 556.42 909.70 556.38 921.03 556.43 932.35 C 567.71 932.28 578.99 932.45 590.27 932.26 C 590.54 921.08 590.26 909.88 590.41 898.70 C 579.12 897.94 567.73 898.59 556.41 898.38 Z" />
</g>
<g id="#1b1b1b6e">
<path fill="#1b1b1b" opacity="0.43" d=" M 960.09 614.91 L 961.00 613.79 L 961.00 750.75 L 960.10 749.96 C 959.95 704.95 959.96 659.93 960.09 614.91 Z" />
</g>
</svg>
