<?xml version="1.0" encoding="UTF-8" ?>
<!DOCTYPE svg PUBLIC "-//W3C//DTD SVG 1.1//EN" "http://www.w3.org/Graphics/SVG/1.1/DTD/svg11.dtd">
<svg width="955pt" height="955pt" viewBox="0 0 955 955" version="1.1" xmlns="http://www.w3.org/2000/svg">
<g id="#3e3e3eff">
<path fill="#3e3e3e" opacity="1.00" d=" M 61.45 0.00 L 892.59 0.00 C 908.09 -0.06 923.77 5.17 935.21 15.81 C 948.02 27.22 954.89 44.29 955.00 61.33 L 955.00 733.53 C 954.86 745.44 952.14 757.51 945.65 767.61 C 937.91 780.06 925.43 789.46 911.31 793.40 C 901.80 796.30 891.78 795.58 881.98 795.66 C 873.08 795.65 864.18 795.66 855.29 795.65 C 855.28 782.38 855.27 769.12 855.29 755.85 C 868.88 755.79 882.47 755.92 896.07 755.79 C 906.66 755.58 915.57 745.63 914.94 735.11 C 914.92 510.04 914.97 284.97 914.91 59.91 C 915.20 48.89 904.97 39.30 894.01 40.06 C 615.98 40.09 337.95 40.03 59.92 40.09 C 49.34 39.83 39.82 49.30 40.10 59.89 C 40.09 285.29 40.09 510.68 40.10 736.08 C 39.85 746.65 49.36 756.11 59.93 755.83 C 219.00 755.86 378.08 755.82 537.15 755.85 C 537.16 769.12 537.16 782.38 537.15 795.65 C 380.44 795.67 223.72 795.65 67.01 795.66 C 60.71 795.68 54.35 795.79 48.15 794.47 C 29.80 790.91 13.60 778.10 5.82 761.11 C 1.88 752.89 0.38 743.76 0.00 734.72 L 0.00 62.39 C -0.11 45.96 5.91 29.36 17.74 17.77 C 29.11 6.15 45.31 0.12 61.45 0.00 Z" />
<path fill="#3e3e3e" opacity="1.00" d=" M 210.57 101.57 C 215.64 99.02 221.46 99.80 226.92 99.69 C 396.61 99.69 566.30 99.67 735.99 99.70 C 743.76 99.58 751.26 104.54 754.26 111.71 C 755.76 114.92 755.90 118.52 755.95 122.01 C 756.38 141.34 764.36 160.32 777.70 174.29 C 792.38 189.93 813.61 199.15 835.08 199.11 C 843.02 198.88 850.75 203.92 853.75 211.28 C 855.69 215.58 855.29 220.41 855.31 225.01 C 855.31 282.66 855.31 340.31 855.31 397.96 C 842.04 397.97 828.77 397.97 815.50 397.96 C 815.49 344.40 815.51 290.84 815.49 237.28 C 784.92 232.15 756.71 214.57 738.66 189.36 C 727.99 174.64 720.81 157.43 717.72 139.51 C 557.58 139.50 397.43 139.50 237.28 139.51 C 232.52 167.71 217.24 193.97 195.02 211.99 C 179.11 225.04 159.77 233.80 139.50 237.28 C 139.50 344.40 139.50 451.52 139.50 558.65 C 169.83 563.74 197.84 581.07 215.90 605.96 C 226.82 620.83 234.15 638.27 237.29 656.44 C 317.37 656.45 397.45 656.43 477.53 656.45 C 477.53 669.70 477.54 682.96 477.52 696.22 C 391.35 696.22 305.17 696.22 219.00 696.22 C 208.64 696.51 199.21 687.42 199.15 677.06 C 199.29 658.61 192.89 640.19 181.12 625.97 C 166.40 607.79 143.33 596.74 119.92 596.81 C 109.21 597.27 99.45 587.75 99.70 577.02 C 99.67 457.70 99.68 338.38 99.70 219.06 C 99.40 208.67 108.50 199.19 118.91 199.15 C 137.38 199.28 155.83 192.85 170.05 181.05 C 188.18 166.32 199.19 143.30 199.11 119.92 C 198.90 112.24 203.58 104.75 210.57 101.57 Z" />
<path fill="#3e3e3e" opacity="1.00" d=" M 275.33 199.39 C 278.52 198.94 281.75 199.16 284.97 199.12 C 415.33 199.12 545.69 199.13 676.04 199.12 C 686.78 198.66 696.52 208.25 696.24 218.99 C 696.25 245.67 696.29 272.35 696.22 299.03 C 696.27 309.61 686.59 318.89 676.02 318.44 C 543.35 318.42 410.68 318.47 278.01 318.41 C 267.78 318.38 258.72 309.23 258.80 299.01 C 258.76 272.35 258.79 245.70 258.78 219.05 C 258.53 209.60 266.00 200.79 275.33 199.39 M 298.57 238.91 C 298.55 252.16 298.56 265.40 298.56 278.65 C 417.85 278.66 537.15 278.66 656.44 278.65 C 656.44 265.40 656.44 252.16 656.43 238.91 C 537.14 238.90 417.86 238.90 298.57 238.91 Z" />
<path fill="#3e3e3e" opacity="1.00" d=" M 238.88 457.60 C 318.43 457.59 397.97 457.59 477.52 457.60 C 477.54 470.86 477.53 484.13 477.52 497.40 C 397.97 497.41 318.43 497.41 238.88 497.40 C 238.87 484.13 238.87 470.87 238.88 457.60 Z" />
</g>
<g id="#fc4a1aff">
<path fill="#fc4a1a" opacity="1.00" d=" M 99.69 99.69 C 112.96 99.68 126.23 99.69 139.49 99.69 C 139.51 112.96 139.50 126.23 139.50 139.50 C 126.23 139.50 112.96 139.51 99.69 139.49 C 99.69 126.23 99.68 112.96 99.69 99.69 Z" />
<path fill="#fc4a1a" opacity="1.00" d=" M 815.50 139.50 C 815.50 126.23 815.49 112.96 815.51 99.69 C 828.77 99.69 842.04 99.68 855.31 99.69 C 855.32 112.96 855.31 126.23 855.31 139.49 C 842.04 139.51 828.77 139.50 815.50 139.50 Z" />
<path fill="#fc4a1a" opacity="1.00" d=" M 238.88 378.06 C 252.15 378.06 265.42 378.05 278.69 378.07 C 278.68 391.33 278.69 404.60 278.69 417.87 C 265.42 417.88 252.15 417.88 238.88 417.87 C 238.87 404.60 238.87 391.33 238.88 378.06 Z" />
<path fill="#fc4a1a" opacity="1.00" d=" M 318.41 378.07 C 331.68 378.05 344.95 378.06 358.22 378.06 C 358.22 391.33 358.22 404.60 358.22 417.87 C 344.95 417.88 331.67 417.88 318.40 417.87 C 318.41 404.60 318.40 391.33 318.41 378.07 Z" />
<path fill="#fc4a1a" opacity="1.00" d=" M 666.04 420.37 C 701.58 414.30 738.95 419.16 771.63 434.45 C 803.36 449.16 830.55 473.42 848.82 503.25 C 868.05 534.38 877.22 571.56 874.82 608.07 C 872.13 654.47 850.21 699.22 815.53 730.10 C 815.52 798.42 815.54 866.73 815.52 935.05 C 815.52 941.13 812.49 947.07 807.63 950.70 C 801.32 955.59 792.01 956.04 785.26 951.78 C 782.07 949.70 779.26 947.11 776.25 944.80 C 749.57 923.46 722.91 902.11 696.22 880.79 C 667.26 903.95 638.30 927.11 609.34 950.28 C 604.08 954.63 596.54 955.87 590.13 953.57 C 582.41 950.95 576.87 943.17 576.92 935.02 C 576.88 866.75 576.92 798.48 576.90 730.22 C 554.66 710.27 537.42 684.76 527.48 656.57 C 513.97 618.59 513.85 576.02 527.15 537.96 C 537.56 507.93 556.22 480.84 580.46 460.30 C 604.73 439.65 634.61 425.65 666.04 420.37 M 678.51 458.75 C 658.01 461.34 638.12 468.61 620.78 479.84 C 595.24 496.29 575.32 521.30 565.15 549.94 C 553.35 582.71 554.50 619.93 568.39 651.88 C 581.86 683.34 607.41 709.39 638.59 723.50 C 671.10 738.43 709.44 739.99 743.08 727.86 C 774.03 716.88 800.71 694.49 816.99 665.98 C 833.77 636.98 839.35 601.79 832.57 568.99 C 825.76 534.95 805.51 503.91 777.28 483.75 C 749.09 463.31 713.03 454.23 678.51 458.75 M 616.67 757.17 C 616.71 802.58 616.67 847.99 616.69 893.39 C 637.20 877.00 657.69 860.60 678.20 844.20 C 681.97 841.32 685.43 837.73 690.11 836.34 C 696.49 834.21 703.85 835.68 709.00 840.00 C 731.25 857.80 753.49 875.60 775.75 893.40 C 775.76 847.96 775.73 802.52 775.76 757.08 C 754.96 767.43 732.13 773.66 708.95 775.29 C 677.31 777.61 645.09 771.31 616.67 757.17 Z" />
<path fill="#fc4a1a" opacity="1.00" d=" M 679.45 498.77 C 700.69 495.14 723.10 498.56 742.19 508.61 C 768.79 522.32 788.48 548.65 793.90 578.11 C 798.35 601.27 794.25 625.98 782.38 646.38 C 767.76 672.00 741.22 690.44 712.04 694.96 C 688.60 698.80 663.83 693.89 643.70 681.25 C 615.58 664.01 597.22 632.05 596.81 599.03 C 595.81 567.28 611.35 535.70 636.95 516.95 C 649.42 507.65 664.11 501.36 679.45 498.77 M 687.52 537.80 C 666.80 540.65 648.31 555.36 640.76 574.86 C 634.79 589.82 635.26 607.21 642.09 621.80 C 648.02 634.73 658.76 645.36 671.74 651.17 C 686.00 657.66 702.84 658.14 717.45 652.52 C 731.75 647.12 743.74 635.98 750.20 622.13 C 756.87 608.09 757.65 591.40 752.39 576.77 C 747.78 563.75 738.46 552.48 726.57 545.47 C 714.94 538.53 700.91 535.81 687.52 537.80 Z" />
<path fill="#fc4a1a" opacity="1.00" d=" M 99.69 656.45 C 112.96 656.43 126.23 656.44 139.50 656.44 C 139.50 669.70 139.51 682.96 139.50 696.22 C 126.23 696.22 112.96 696.22 99.69 696.21 C 99.68 682.96 99.69 669.70 99.69 656.45 Z" />
</g>
</svg>
