<?xml version="1.0" encoding="UTF-8" ?>
<!DOCTYPE svg PUBLIC "-//W3C//DTD SVG 1.1//EN" "http://www.w3.org/Graphics/SVG/1.1/DTD/svg11.dtd">
<svg width="1024pt" height="40pt" viewBox="0 0 1024 797" version="1.1" xmlns="http://www.w3.org/2000/svg">
<g id="#3e3e3eff">
<path fill="#3e3e3e" opacity="1.00" d=" M 82.34 1.31 C 125.76 -1.73 169.40 6.74 209.89 22.20 C 216.04 24.81 218.21 31.73 220.36 37.48 C 224.06 47.81 227.36 58.28 230.39 68.83 C 272.64 68.88 315.41 77.30 352.98 97.09 C 385.81 114.57 414.91 139.25 436.82 169.36 C 417.39 199.64 397.99 229.94 378.67 260.30 C 363.05 238.84 349.89 214.98 329.29 197.69 C 322.54 191.81 314.64 187.54 307.01 182.97 C 257.60 154.83 190.62 160.97 148.02 198.98 C 123.72 218.47 106.89 247.13 102.14 277.95 C 98.13 305.40 102.39 334.12 115.13 358.84 C 128.09 384.58 149.51 406.01 175.55 418.47 C 229.88 445.12 300.90 432.72 342.51 388.61 C 353.29 377.52 360.39 363.67 368.79 350.84 C 412.32 282.00 458.24 214.69 505.26 148.20 C 510.55 140.07 517.69 133.40 524.67 126.75 C 554.07 99.67 590.99 80.99 630.07 72.73 C 656.46 66.35 683.78 67.61 710.70 67.18 C 714.22 55.41 716.74 43.24 722.02 32.07 C 724.74 24.34 733.14 21.63 739.92 18.58 C 778.06 4.32 819.19 0.63 859.62 0.36 C 859.74 25.70 858.61 51.26 852.89 76.04 C 850.56 86.73 846.64 96.98 843.40 107.40 C 841.47 112.29 839.00 119.12 843.76 123.21 C 892.21 164.24 923.46 226.20 923.74 290.07 C 925.39 323.23 918.46 356.61 904.68 386.76 C 891.36 416.00 871.87 442.40 847.94 463.84 C 824.35 484.85 796.55 501.20 766.60 511.31 C 743.88 518.97 720.01 523.15 696.05 523.75 C 678.99 524.85 661.81 524.25 644.94 521.50 C 582.47 511.49 524.58 475.67 487.69 424.28 C 508.20 395.12 525.26 363.65 546.38 334.93 C 557.68 351.74 568.19 369.19 581.54 384.50 C 600.32 406.41 626.85 421.33 655.15 426.71 C 694.67 434.27 736.95 424.91 769.99 402.06 C 783.56 392.54 795.82 380.86 804.79 366.85 C 824.15 336.73 829.31 298.41 820.41 263.89 C 812.52 232.77 792.35 205.20 765.95 187.11 C 730.59 162.98 684.03 155.11 643.10 168.36 C 616.25 177.31 590.96 193.07 573.96 216.03 C 562.75 231.70 552.65 248.11 542.37 264.39 C 522.80 295.53 502.40 326.13 481.18 356.16 C 467.31 375.98 453.33 395.73 439.81 415.79 C 432.20 426.61 425.73 438.22 417.34 448.48 C 395.50 475.82 365.87 496.36 333.59 509.50 C 312.17 518.23 289.48 523.84 266.47 526.25 C 246.72 528.18 226.74 528.58 207.02 526.00 C 163.96 520.60 122.38 503.53 88.11 476.88 C 68.23 461.51 51.06 442.73 37.33 421.69 C -4.64 358.57 -12.11 272.98 21.69 204.67 C 38.20 167.86 65.69 136.66 98.17 113.06 C 85.47 77.41 78.52 39.17 82.34 1.31 Z" />
<path fill="#3e3e3e" opacity="1.00" d=" M 625.75 557.01 C 652.17 556.99 678.58 557.00 705.00 557.00 C 705.00 621.35 705.00 685.69 705.00 750.03 C 704.85 765.68 705.31 781.36 704.76 797.00 L 625.79 797.00 C 625.70 717.00 625.77 637.00 625.75 557.01 Z" />
<path fill="#3e3e3e" opacity="1.00" d=" M 939.67 614.83 C 946.86 612.41 954.55 613.55 961.99 612.98 C 975.93 612.32 990.61 613.69 1002.64 621.41 C 1014.54 628.61 1021.46 642.27 1022.54 655.90 C 1023.48 670.05 1023.70 684.24 1024.00 698.43 L 1024.00 797.00 L 944.58 797.00 C 943.96 758.35 945.17 719.67 944.42 681.01 C 944.11 673.93 939.04 668.50 934.77 663.33 C 930.59 667.88 926.47 672.81 924.59 678.81 C 923.05 683.39 924.19 688.26 923.91 692.98 C 922.91 727.65 924.16 762.33 923.63 797.00 L 844.63 797.00 C 844.33 737.13 844.58 677.26 844.50 617.38 C 869.54 617.27 894.58 617.55 919.63 617.49 C 919.15 620.20 918.69 622.92 918.24 625.64 C 925.26 621.82 931.99 617.26 939.67 614.83 Z" />
<path fill="#3e3e3e" opacity="1.00" d=" M 426.00 617.48 C 453.04 617.47 480.07 617.30 507.11 617.38 C 507.14 673.92 507.11 730.46 507.13 787.00 C 507.15 790.33 507.30 793.69 506.71 797.00 L 425.71 797.00 C 428.69 737.21 429.30 677.27 426.00 617.48 Z" />
<path fill="#3e3e3e" opacity="1.00" d=" M 734.22 617.51 C 761.28 617.47 788.34 617.25 815.40 617.43 C 815.54 677.16 815.58 736.89 815.38 796.62 C 788.24 796.62 761.10 796.63 733.96 796.62 C 737.01 736.97 737.61 677.15 734.22 617.51 Z" />
</g>
<g id="#aaaaaaff">
<path fill="#aaaaaa" opacity="1.00" d=" M 223.04 250.18 C 231.00 249.32 239.21 248.76 247.00 251.10 C 264.07 255.70 279.35 269.89 281.81 287.90 C 282.19 294.78 283.18 301.81 281.41 308.60 C 277.75 323.40 265.89 335.44 251.76 340.74 C 238.83 345.18 224.06 345.26 211.54 339.39 C 200.71 334.55 191.85 325.42 187.75 314.24 C 175.70 288.26 194.89 254.19 223.04 250.18 Z" />
<path fill="#aaaaaa" opacity="1.00" d=" M 676.13 250.17 C 691.44 247.62 708.11 251.56 719.50 262.43 C 726.40 268.65 730.35 277.40 732.78 286.21 C 736.62 301.58 731.41 318.36 720.76 329.82 C 701.42 349.52 665.58 348.27 647.20 327.85 C 635.90 316.83 634.92 299.62 636.88 284.88 C 641.51 266.91 657.85 252.82 676.13 250.17 Z" />
<path fill="#aaaaaa" opacity="1.00" d=" M 414.41 499.21 C 423.57 474.05 440.50 452.08 461.05 435.11 C 466.84 439.76 471.80 445.59 476.90 451.06 C 489.76 465.63 501.17 482.14 506.83 500.89 C 498.28 526.52 481.06 548.83 459.77 565.26 C 445.84 552.04 432.34 537.91 422.98 520.99 C 419.30 514.11 416.00 506.88 414.41 499.21 Z" />
<path fill="#aaaaaa" opacity="1.00" d=" M 765.51 530.56 C 782.97 526.42 801.97 536.77 809.33 552.84 C 812.37 562.49 812.98 573.37 809.07 582.88 C 806.71 588.80 801.95 593.27 797.17 597.27 C 785.54 606.18 768.80 607.80 755.68 601.28 C 749.20 598.11 744.20 592.62 740.07 586.83 C 728.80 568.97 737.08 542.61 755.91 533.53 C 758.92 532.03 762.22 531.24 765.51 530.56 Z" />
</g>
</svg>
