<?xml version="1.0" encoding="UTF-8" ?>
<!DOCTYPE svg PUBLIC "-//W3C//DTD SVG 1.1//EN" "http://www.w3.org/Graphics/SVG/1.1/DTD/svg11.dtd">
<svg width="922pt" height="718pt" viewBox="0 0 922 718" version="1.1" xmlns="http://www.w3.org/2000/svg">
<g id="#fc4a1aff">
<path fill="#fc4a1a" opacity="1.00" d=" M 73.98 1.29 C 111.27 -1.34 148.76 5.55 183.76 18.26 C 186.55 19.38 189.69 20.02 191.91 22.18 C 194.64 24.80 196.06 28.41 197.39 31.87 C 201.05 41.82 204.19 51.95 207.19 62.11 C 245.17 62.07 283.61 69.71 317.39 87.46 C 346.97 103.19 373.18 125.41 392.94 152.51 C 375.46 179.76 358.03 207.04 340.61 234.32 C 325.73 213.58 312.98 190.41 292.21 174.79 C 285.96 170.22 279.17 166.45 272.42 162.68 C 228.33 139.72 170.31 145.87 133.02 179.13 C 112.31 195.76 97.61 219.76 92.48 245.85 C 86.75 276.07 92.86 308.43 109.78 334.20 C 124.80 357.84 148.55 375.54 175.29 383.73 C 204.32 392.63 236.31 390.74 264.42 379.44 C 288.09 369.98 309.18 353.27 322.22 331.19 C 364.44 263.51 409.36 197.55 455.41 132.43 C 458.50 127.63 462.59 123.62 466.56 119.56 C 494.05 92.07 529.88 73.27 567.89 65.39 C 591.35 59.88 615.60 60.91 639.51 60.63 C 642.52 50.90 644.63 40.86 648.65 31.47 C 650.10 28.24 651.41 24.64 654.54 22.62 C 661.32 18.04 669.22 15.51 676.95 13.04 C 708.16 3.36 741.04 0.63 773.56 0.47 C 773.60 22.69 772.68 45.08 767.85 66.84 C 765.31 78.81 760.86 90.24 757.24 101.89 C 756.24 105.16 756.69 109.20 759.63 111.34 C 802.47 147.80 830.32 202.47 831.19 259.04 C 832.08 276.49 830.73 294.07 826.73 311.09 C 817.91 349.16 797.44 384.24 769.52 411.48 C 744.81 435.50 714.17 453.46 681.05 463.02 C 662.54 468.42 643.30 471.16 624.03 471.57 C 552.34 476.14 480.54 440.04 438.87 382.01 C 457.18 355.70 472.79 327.59 491.54 301.57 C 502.62 317.95 512.80 335.13 526.36 349.66 C 537.32 361.54 551.04 370.75 565.87 377.08 C 616.36 398.10 679.02 383.00 715.25 342.27 C 738.22 316.12 746.45 278.90 739.99 245.05 C 733.60 210.03 710.04 179.05 678.94 162.10 C 647.75 144.91 609.19 140.62 575.46 152.66 C 558.06 158.95 541.58 168.31 528.17 181.16 C 516.47 192.18 508.45 206.28 499.64 219.54 C 478.92 252.59 457.82 285.42 435.24 317.24 C 421.95 336.31 408.49 355.27 395.49 374.54 C 387.49 386.14 380.50 398.51 371.01 409.01 C 348.80 434.50 319.04 452.77 287.11 463.43 C 260.11 472.55 231.39 475.98 202.97 474.93 C 137.49 472.01 73.22 438.28 36.25 383.71 C -3.91 326.61 -11.79 247.48 19.28 184.55 C 34.13 151.32 58.93 123.14 88.25 101.86 C 76.83 69.79 70.51 35.36 73.98 1.29 Z" />
<path fill="#fc4a1a" opacity="1.00" d=" M 563.13 501.47 C 586.89 501.51 610.65 501.47 634.41 501.48 C 634.43 573.43 634.38 645.37 634.37 717.31 C 610.62 717.24 586.87 717.24 563.11 717.31 C 563.05 645.36 563.11 573.41 563.13 501.47 Z" />
<path fill="#fc4a1a" opacity="1.00" d=" M 826.29 563.30 C 835.02 558.65 843.60 552.29 853.91 552.18 C 869.09 551.96 885.45 550.03 899.25 557.81 C 913.18 564.33 920.52 580.08 920.46 594.95 C 920.95 606.45 921.62 617.94 922.00 629.44 L 922.00 646.78 C 921.82 670.29 920.89 693.80 921.50 717.31 C 897.66 717.31 873.82 717.20 849.98 717.26 C 849.73 684.52 850.49 651.78 850.05 619.04 C 849.94 615.36 850.34 611.50 848.84 608.04 C 847.13 603.87 844.05 600.49 841.21 597.08 C 835.39 603.18 829.89 611.01 831.41 619.93 C 830.70 652.38 831.41 684.85 831.28 717.31 C 807.52 717.31 783.76 717.20 760.00 717.26 C 760.00 663.44 759.99 609.63 760.01 555.81 C 782.52 555.87 805.04 555.91 827.55 555.94 C 827.12 558.39 826.70 560.84 826.29 563.30 Z" />
<path fill="#fc4a1a" opacity="1.00" d=" M 383.26 555.94 C 407.60 555.91 431.94 555.82 456.28 555.85 C 456.29 609.67 456.28 663.49 456.28 717.31 C 431.85 717.31 407.42 717.19 382.99 717.27 C 385.79 663.54 386.26 609.67 383.26 555.94 Z" />
<path fill="#fc4a1a" opacity="1.00" d=" M 660.76 555.94 C 685.10 555.91 709.44 555.82 733.78 555.85 C 733.79 609.67 733.77 663.48 733.79 717.30 C 709.35 717.32 684.92 717.19 660.49 717.26 C 663.29 663.54 663.76 609.67 660.76 555.94 Z" />
</g>
<g id="#f7b733ff">
<path fill="#f7b733" opacity="1.00" d=" M 198.49 225.67 C 209.22 223.82 220.73 224.16 230.53 229.38 C 242.11 235.10 251.62 246.09 253.41 259.14 C 253.91 266.41 254.78 273.97 252.14 280.96 C 246.71 296.57 231.38 308.05 214.94 309.24 C 201.85 311.04 188.02 306.70 178.47 297.55 C 172.82 292.34 169.43 285.24 167.02 278.06 C 160.63 256.01 176.02 230.39 198.49 225.67 Z" />
<path fill="#f7b733" opacity="1.00" d=" M 606.47 225.63 C 619.96 222.93 634.77 225.66 645.46 234.61 C 652.82 240.41 657.13 249.17 659.44 258.08 C 662.80 272.16 657.79 287.51 647.76 297.72 C 633.71 311.21 610.89 312.94 593.95 304.08 C 583.54 298.51 574.82 288.59 573.22 276.57 C 572.09 267.39 571.41 257.34 575.97 248.91 C 581.92 237.09 593.46 228.20 606.47 225.63 Z" />
<path fill="#f7b733" opacity="1.00" d=" M 373.77 446.93 C 382.37 425.31 397.10 406.44 414.95 391.64 C 432.43 408.28 448.58 427.57 456.07 450.90 C 448.19 473.90 432.87 494.02 413.67 508.80 C 396.57 492.60 379.70 474.28 373.18 451.06 C 372.44 449.65 373.32 448.24 373.77 446.93 Z" />
<path fill="#f7b733" opacity="1.00" d=" M 688.51 477.78 C 704.29 473.84 721.57 483.17 728.25 497.70 C 731.24 507.13 731.66 517.98 726.96 526.93 C 719.48 539.88 703.58 547.25 688.85 544.20 C 678.51 542.52 669.97 535.12 664.86 526.25 C 654.99 507.63 667.27 480.94 688.51 477.78 Z" />
</g>
</svg>
